<svg width="20" height="20" viewBox="0 0 20 20" fill="none" xmlns="http://www.w3.org/2000/svg">
<path d="M15.5078 4.38287C14.5625 2.76569 13.2734 1.87506 11.875 1.87506H8.125C6.72656 1.87506 5.4375 2.76569 4.49219 4.38287C3.54687 6.00006 3.125 7.89069 3.125 10.0001C3.125 12.1094 3.60937 14.1094 4.49219 15.6172C5.375 17.1251 6.72656 18.1251 8.125 18.1251H11.875C13.2734 18.1251 14.5625 17.2344 15.5078 15.6172C16.4531 14.0001 16.875 12.1094 16.875 10.0001C16.875 7.89069 16.3906 5.89069 15.5078 4.38287V4.38287ZM15.6094 9.37506H13.1094C13.0469 8.03131 12.7891 6.74225 12.3516 5.62506H14.7422C15.2187 6.67194 15.5391 7.96881 15.6094 9.37506ZM14 4.37506H11.7578C11.4933 3.92449 11.1788 3.50518 10.8203 3.12506H11.875C12.6562 3.12506 13.3906 3.59381 14 4.37506V4.37506ZM4.375 10.0001C4.375 6.2735 6.09375 3.12506 8.125 3.12506C10.1562 3.12506 11.875 6.2735 11.875 10.0001C11.875 13.7266 10.1562 16.8751 8.125 16.8751C6.09375 16.8751 4.375 13.7266 4.375 10.0001ZM11.875 16.8751H10.8203C11.1788 16.4949 11.4933 16.0756 11.7578 15.6251H14C13.3906 16.4063 12.6562 16.8751 11.875 16.8751ZM14.7422 14.3751H12.3516C12.7891 13.2579 13.0469 11.9688 13.1094 10.6251H15.6094C15.5391 12.0313 15.2187 13.3282 14.7422 14.3751Z" fill="#E8E7E5"/>
</svg>
