<svg width="189" height="38" viewBox="0 0 189 38" fill="none" xmlns="http://www.w3.org/2000/svg">
<path d="M2.88464 22.2278C2.88464 22.1418 2.88464 22.0558 2.88464 21.9698C2.88464 21.8838 2.88464 21.7978 2.88464 21.6688C2.88464 21.1099 2.88464 20.594 2.88464 20.078C2.88464 19.5191 2.88464 19.0032 2.88464 18.4442C2.88464 17.9283 2.88464 17.4123 2.88464 16.8964C2.88464 16.3805 2.88464 15.8645 2.88464 15.3486C2.88464 14.6177 2.88464 13.8868 2.88464 13.1129C2.88464 12.339 2.88464 11.5651 2.88464 10.8342C2.88464 10.0173 2.88464 9.15735 2.88464 8.34045C2.88464 7.48056 2.88464 6.62066 2.88464 5.76077C2.88464 5.07285 2.88464 4.42793 2.88464 3.74002C2.88464 3.0521 2.88464 2.36419 2.88464 1.67627H15.2671C15.2671 2.36419 15.2671 3.0951 15.2671 3.82601C15.2671 4.51392 15.2671 5.24483 15.2671 5.97574C15.2671 6.14772 15.2671 6.3197 15.2671 6.49168C15.2671 6.66366 15.2671 6.87863 15.2671 7.00762H8.38797C8.38797 7.78152 8.38797 8.55543 8.38797 9.28634C8.38797 10.0172 8.38797 10.7482 8.38797 11.5221C8.38797 12.124 8.38797 12.7689 8.38797 13.3708C8.38797 13.9728 8.38797 14.5747 8.38797 15.1766C8.38797 15.3486 8.38797 15.4776 8.38797 15.6496C8.38797 15.7785 8.38797 15.9075 8.38797 16.0795H13.5903C13.5903 16.5954 13.5903 17.1114 13.5903 17.6273C13.5903 18.1003 13.5903 18.6162 13.5903 19.0891C13.5903 19.4761 13.5903 19.863 13.5903 20.25C13.5903 20.637 13.5903 21.0239 13.5903 21.4538H8.38797V35.0832H2.88464V22.2278Z" fill="white"/>
<path d="M30.1863 22.2282V21.6263C30.1863 21.1103 30.1863 20.5944 30.1863 20.0785C30.1863 19.5195 30.1863 19.0036 30.1863 18.4876C30.1863 18.0147 30.1863 17.4988 30.1863 17.0258C30.1863 16.4669 30.1863 15.951 30.1863 15.435C30.1863 14.7041 30.1863 13.9732 30.1863 13.1993C30.1863 12.4254 30.1863 11.6515 30.1863 10.9206C30.1863 10.0607 30.1863 9.20079 30.1863 8.34089C30.1863 7.481 30.1863 6.6211 30.1863 5.76121C30.1863 5.11629 30.1863 4.47136 30.1863 3.78345C30.1863 3.09553 30.1863 2.45061 30.1863 1.7627H37.0224C38.3123 1.7627 39.5161 2.06366 40.591 2.70858C41.7089 3.31051 42.5688 4.1704 43.2137 5.24527C43.8586 6.32014 44.2026 7.481 44.2026 8.72784C44.2026 9.15779 44.2026 9.63073 44.2026 10.1037C44.2026 10.5336 44.2026 11.0066 44.2026 11.4365C44.2026 11.9095 44.2026 12.3824 44.2026 12.8553C44.2026 13.2853 44.2026 13.7582 44.2026 14.1882C44.2026 15.1341 44.0306 15.994 43.6436 16.8539C43.2997 17.6708 42.7837 18.4017 42.1818 19.0466C42.8697 19.3046 43.4287 19.7345 43.8156 20.3364C44.2456 20.8954 44.4605 21.5833 44.4605 22.3142V30.8701C44.4605 32.246 44.6325 33.6648 45.0195 35.1696H39.5161C39.1722 33.6648 38.9572 32.246 38.9572 30.8701V23.1311C38.9572 22.7011 38.8282 22.3572 38.5273 22.0992C38.2263 21.7982 37.8823 21.6263 37.4524 21.6263H35.7326V35.2556H30.2293V22.2282H30.1863ZM36.9365 16.2519C37.4954 16.2519 37.9683 16.0799 38.3553 15.693C38.7852 15.306 39.0002 14.8331 39.0002 14.3172C39.0002 13.3713 39.0002 12.6834 39.0002 11.7375C39.0002 10.7486 39.0002 9.75972 39.0002 8.81383C39.0002 8.38389 38.8282 7.99693 38.4413 7.65298C38.0973 7.30902 37.7104 7.13704 37.2804 7.13704H35.6896C35.6896 7.82495 35.6896 8.46988 35.6896 9.15779C35.6896 9.80271 35.6896 10.4476 35.6896 11.1355C35.6896 11.8235 35.6896 12.5544 35.6896 13.2853C35.6896 13.9732 35.6896 14.7041 35.6896 15.435V16.2949H36.9365V16.2519Z" fill="white"/>
<path d="M60.7132 22.2279C60.7562 22.0989 60.7562 21.9699 60.7562 21.8839C60.7562 21.7979 60.7562 21.669 60.7992 21.54C60.8852 21.024 60.9282 20.5081 61.0571 19.9922C61.1431 19.4762 61.2291 18.9603 61.3151 18.4444C61.4441 17.7994 61.5731 17.1545 61.6591 16.5526C61.7451 15.9077 61.874 15.2627 61.96 14.6608C62.046 14.0159 62.175 13.414 62.261 12.812C62.39 12.1671 62.519 11.5222 62.605 10.9203C62.7339 10.1464 62.8629 9.37247 62.9919 8.64156C63.1209 7.86765 63.2499 7.09375 63.3789 6.36284C63.5078 5.63193 63.6368 4.90101 63.7228 4.12711C63.8518 3.3532 63.9808 2.5793 64.1098 1.84839H69.6131C69.7421 2.5363 69.8711 3.22422 69.9571 3.91214C70.043 4.60005 70.172 5.28797 70.301 5.97588C70.43 6.79278 70.559 7.56669 70.688 8.38359C70.817 9.20049 70.9459 9.97439 71.0749 10.7913C71.1609 11.1353 71.2039 11.4792 71.2899 11.8232C71.3759 12.1241 71.4189 12.4681 71.4189 12.812L71.7628 14.8758C71.8488 15.5207 71.9778 16.1656 72.0638 16.7676C72.1498 17.3695 72.2788 17.9714 72.4078 18.5733C72.4938 19.0033 72.5367 19.3902 72.6227 19.8202C72.7087 20.2501 72.7517 20.6371 72.8377 21.067C72.9237 21.497 72.9667 21.8839 73.0527 22.3139L75.2024 35.3413H69.6991L69.0542 30.1389H64.7977L64.1098 35.3413H58.6064L60.7132 22.2279ZM68.3663 24.6356C68.3233 24.3776 66.9474 13.586 66.9044 13.113C66.8184 13.586 65.4856 24.3776 65.4426 24.6356H68.3663Z" fill="white"/>
<path d="M96.2698 35.6422C94.98 35.6422 93.8191 35.3413 92.7012 34.7394C91.6264 34.0944 90.7665 33.2775 90.0786 32.2027C89.4767 31.1278 89.1327 29.9239 89.1327 28.6771V21.325C89.1327 21.11 89.1327 20.8951 89.1327 20.7231C89.1327 20.5081 89.1327 20.2931 89.1327 20.0352C89.1327 19.8632 89.1327 19.6482 89.1327 19.4762C89.1327 19.2612 89.1327 19.0463 89.1327 18.7883C89.1327 18.2294 89.1327 17.6275 89.1327 17.0685C89.1327 16.5096 89.1327 15.9077 89.1327 15.3487C89.1327 14.6178 89.1327 13.8869 89.1327 13.113C89.1327 12.3391 89.1327 11.6082 89.1327 10.8773C89.1327 10.5333 89.1327 10.1894 89.1327 9.8884C89.1327 9.54444 89.1327 9.20048 89.1327 8.89952V8.42657C89.1327 7.13673 89.4337 5.97587 90.0786 4.944C90.7235 3.86913 91.5834 3.00924 92.7012 2.40731C93.8191 1.76239 95.023 1.46143 96.2698 1.46143C97.5597 1.46143 98.7205 1.76239 99.7954 2.40731C100.913 3.00924 101.773 3.86913 102.461 4.944C103.106 5.97587 103.45 7.17973 103.45 8.42657V9.58743C103.45 9.8454 103.45 10.1034 103.45 10.3613C103.45 10.6193 103.45 10.8773 103.45 11.1352C103.45 11.6512 103.45 12.1671 103.45 12.6831C103.45 13.199 103.45 12.941 103.45 13.414H97.9466C97.9466 12.941 97.9466 13.242 97.9466 12.769C97.9466 12.2961 97.9466 11.8232 97.9466 11.3502C97.9466 10.8773 97.9466 10.4043 97.9466 9.93139C97.9466 9.45845 97.9466 8.98551 97.9466 8.51256V8.38358C97.9036 7.95363 97.7316 7.60967 97.3877 7.35171C97.0437 7.05074 96.6998 6.92176 96.2698 6.92176C95.7969 6.92176 95.4099 7.09374 95.109 7.3947C94.765 7.69566 94.636 8.08262 94.679 8.55556C94.679 8.72754 94.679 8.94251 94.679 9.15748C94.679 9.32946 94.679 9.54444 94.679 9.75941C94.679 9.97439 94.679 10.1894 94.679 10.3613C94.679 10.5333 94.679 10.7483 94.679 10.9633C94.679 11.7372 94.679 12.5111 94.679 13.242C94.679 13.9729 94.679 14.7038 94.679 15.4347C94.679 15.9936 94.679 16.5526 94.679 17.1115C94.679 17.6704 94.679 18.2294 94.679 18.7883C94.679 19.0033 94.679 19.2183 94.679 19.4762C94.679 19.6482 94.679 19.8632 94.679 20.0782C94.679 20.2931 94.679 20.5081 94.679 20.7661C94.679 20.981 94.679 21.196 94.679 21.454C94.679 21.7549 94.679 22.0129 94.679 22.3139C94.679 22.6148 94.679 22.8728 94.679 23.1738C94.679 24.1197 94.679 25.0225 94.679 26.0114C94.679 27.0003 94.679 27.9032 94.679 28.8491C94.679 29.279 94.808 29.666 95.109 30.0099C95.4529 30.3109 95.8399 30.4829 96.2698 30.4829C96.7428 30.4829 97.1297 30.3109 97.4307 30.0099C97.7746 29.709 97.9036 29.322 97.9036 28.8491V21.583H103.407V28.6771C103.407 29.9669 103.063 31.1708 102.418 32.2457C101.773 33.2775 100.87 34.1374 99.7524 34.7394C98.6775 35.3413 97.5167 35.6422 96.2698 35.6422Z" fill="white"/>
<path d="M121.506 21.0243C121.506 20.2504 121.506 19.4765 121.506 18.7456C121.506 17.9287 121.506 17.1548 121.506 16.3379C121.506 16.037 121.506 15.779 121.506 15.521C121.506 15.22 121.506 14.9621 121.506 14.6611C121.506 13.3713 121.506 12.1244 121.506 10.8776C121.506 9.63073 121.506 8.38389 121.506 7.09404H117.593C117.593 6.92206 117.593 6.70709 117.593 6.53511C117.593 6.36313 117.593 6.14816 117.593 5.93319C117.593 5.24527 117.593 4.55735 117.593 3.86944C117.593 3.18152 117.593 2.45061 117.593 1.7627H130.75C130.75 2.5366 130.75 3.31051 130.75 4.08441C130.75 4.85832 130.75 5.63222 130.75 6.36313V7.09404H127.009C127.009 7.91094 127.009 8.77084 127.009 9.63073C127.009 10.4906 127.009 11.3505 127.009 12.1674C127.009 12.9843 127.009 13.8442 127.009 14.6611V16.2089C127.009 17.0258 127.009 17.7997 127.009 18.6596C127.009 19.4765 127.009 20.2504 127.009 21.0673V35.2556H121.506V21.0243Z" fill="white"/>
<path d="M174.477 22.228V21.626C174.477 21.0671 174.477 20.5512 174.477 20.0352C174.477 19.4763 174.477 18.9604 174.477 18.4444C174.477 17.9285 174.477 17.4556 174.477 16.9826C174.477 16.4667 174.477 15.9507 174.477 15.4348C174.477 14.6609 174.477 13.887 174.477 13.1561C174.477 12.4252 174.477 11.6083 174.477 10.8774C174.477 10.0175 174.477 9.15757 174.477 8.34067C174.477 7.48078 174.477 6.62088 174.477 5.80398C174.477 5.11607 174.477 4.47115 174.477 3.78323C174.477 3.09531 174.477 2.4074 174.477 1.71948H179.981C179.981 2.4074 179.981 3.05232 179.981 3.74023C179.981 4.38516 179.981 5.03008 179.981 5.632C179.981 6.23393 179.981 6.92185 179.981 7.52377C179.981 8.1257 179.981 8.77062 179.981 9.37255C179.981 10.1894 179.981 10.9634 179.981 11.8232C179.981 12.6401 179.981 13.4141 179.981 14.231V15.7788C179.981 15.8648 179.981 15.9937 179.981 16.1227C179.981 16.2087 179.981 16.2947 179.981 16.4237C179.981 16.8536 179.981 17.2836 179.981 17.7135C179.981 18.1435 179.981 18.5734 179.981 19.0034C179.981 19.4333 179.981 19.8633 179.981 20.2932C179.981 20.7232 179.981 21.1101 179.981 21.5401V22.142V29.838H185.742V35.2124H174.52V22.228H174.477Z" fill="white"/>
<path d="M145.54 22.2279C145.583 22.0989 145.583 21.9699 145.583 21.8839C145.583 21.7979 145.583 21.669 145.626 21.54C145.712 21.024 145.755 20.5081 145.884 19.9922C145.97 19.4762 146.056 18.9603 146.142 18.4444C146.271 17.7994 146.4 17.1545 146.486 16.5526C146.572 15.9077 146.701 15.2627 146.787 14.6608C146.873 14.0159 147.002 13.414 147.088 12.812C147.217 12.1671 147.346 11.5222 147.432 10.9203C147.561 10.1464 147.69 9.37247 147.819 8.64156C147.948 7.86765 148.077 7.09375 148.206 6.36284C148.335 5.63193 148.464 4.90101 148.55 4.12711C148.678 3.3532 148.807 2.5793 148.936 1.84839H154.44C154.569 2.5363 154.698 3.22422 154.784 3.91214C154.87 4.60005 154.999 5.28797 155.128 5.97588C155.257 6.79278 155.386 7.56669 155.515 8.38359C155.644 9.20049 155.773 9.97439 155.902 10.7913C155.988 11.1353 156.031 11.4792 156.117 11.8232C156.203 12.1241 156.246 12.4681 156.246 12.812L156.59 14.8758C156.676 15.5207 156.804 16.1656 156.89 16.7676C156.976 17.3695 157.105 17.9714 157.234 18.5733C157.32 19.0033 157.363 19.3902 157.449 19.8202C157.535 20.2501 157.578 20.6371 157.664 21.067C157.75 21.497 157.793 21.8839 157.879 22.3139L160.029 35.3413H154.483L153.838 30.1389H149.581L148.893 35.2553H143.39L145.54 22.2279ZM153.193 24.6786C153.15 24.4206 151.774 13.6289 151.731 13.156C151.645 13.6289 150.312 24.4206 150.269 24.6786H153.193Z" fill="white"/>
</svg>
