<svg width="10" height="10" viewBox="0 0 10 10" fill="none" xmlns="http://www.w3.org/2000/svg">
<path fill-rule="evenodd" clip-rule="evenodd" d="M0.433448 9.56632C0.58347 9.71629 0.786917 9.80055 0.999048 9.80055C1.21118 9.80055 1.41463 9.71629 1.56465 9.56632L4.99905 6.13192L8.43345 9.56632C8.50725 9.64272 8.59552 9.70367 8.69312 9.7456C8.79073 9.78752 8.8957 9.80959 9.00193 9.81052C9.10815 9.81144 9.2135 9.7912 9.31181 9.75097C9.41013 9.71075 9.49945 9.65135 9.57456 9.57623C9.64968 9.50112 9.70908 9.4118 9.74931 9.31348C9.78953 9.21516 9.80977 9.10982 9.80885 9.0036C9.80793 8.89737 9.78586 8.7924 9.74393 8.69479C9.702 8.59719 9.64106 8.50891 9.56465 8.43512L6.13025 5.00072L9.56465 1.56632C9.71037 1.41543 9.79101 1.21335 9.78919 1.0036C9.78736 0.793839 9.70323 0.593188 9.5549 0.444861C9.40658 0.296535 9.20593 0.2124 8.99617 0.210577C8.78641 0.208755 8.58433 0.28939 8.43345 0.435117L4.99905 3.86952L1.56465 0.435117C1.41377 0.28939 1.21168 0.208755 1.00193 0.210577C0.792169 0.2124 0.59152 0.296535 0.443193 0.444861C0.294867 0.593188 0.210731 0.793839 0.208908 1.0036C0.207086 1.21335 0.287722 1.41543 0.433448 1.56632L3.86785 5.00072L0.433448 8.43512C0.283471 8.58514 0.199219 8.78858 0.199219 9.00072C0.199219 9.21285 0.283471 9.41629 0.433448 9.56632Z" fill="#E8E7E5"/>
</svg>
