<svg width="24" height="24" viewBox="0 0 24 24" fill="none" xmlns="http://www.w3.org/2000/svg">
<path d="M3 24C2.20435 24 1.44129 23.6839 0.87868 23.1213C0.316071 22.5587 0 21.7956 0 21V3C0 2.20435 0.316071 1.44129 0.87868 0.87868C1.44129 0.316071 2.20435 0 3 0L21 0C21.7956 0 22.5587 0.316071 23.1213 0.87868C23.6839 1.44129 24 2.20435 24 3V21C24 21.7956 23.6839 22.5587 23.1213 23.1213C22.5587 23.6839 21.7956 24 21 24H3ZM12.75 17.25V8.5605L15.969 11.781C16.0387 11.8507 16.1215 11.906 16.2126 11.9438C16.3037 11.9815 16.4014 12.0009 16.5 12.0009C16.5986 12.0009 16.6963 11.9815 16.7874 11.9438C16.8785 11.906 16.9613 11.8507 17.031 11.781C17.1007 11.7113 17.156 11.6285 17.1938 11.5374C17.2315 11.4463 17.2509 11.3486 17.2509 11.25C17.2509 11.1514 17.2315 11.0537 17.1938 10.9626C17.156 10.8715 17.1007 10.7887 17.031 10.719L12.531 6.219C12.4613 6.14916 12.3786 6.09374 12.2874 6.05593C12.1963 6.01812 12.0987 5.99866 12 5.99866C11.9013 5.99866 11.8037 6.01812 11.7125 6.05593C11.6214 6.09374 11.5387 6.14916 11.469 6.219L6.969 10.719C6.82817 10.8598 6.74905 11.0508 6.74905 11.25C6.74905 11.4492 6.82817 11.6402 6.969 11.781C7.10983 11.9218 7.30084 12.0009 7.5 12.0009C7.69916 12.0009 7.89017 11.9218 8.031 11.781L11.25 8.5605V17.25C11.25 17.4489 11.329 17.6397 11.4697 17.7803C11.6103 17.921 11.8011 18 12 18C12.1989 18 12.3897 17.921 12.5303 17.7803C12.671 17.6397 12.75 17.4489 12.75 17.25Z" fill="#E8E7E5"/>
</svg>
