<svg width="128" height="26" viewBox="0 0 128 26" fill="none" xmlns="http://www.w3.org/2000/svg">
    <path d="M1 15.209V1.147h8.472V4.795H4.765v6.207h3.56v3.678h-3.56v9.325H1v-8.796zM19.68 15.209V1.206h4.677c.883 0 1.706.206 2.442.647.765.412 1.353 1 1.794 1.736.441.735.677 1.53.677 2.383V9.708a4.32 4.32 0 0 1-.383 1.824 5.152 5.152 0 0 1-1 1.5c.47.176.853.47 1.118.882.294.383.441.854.441 1.354v5.854c0 .941.118 1.912.383 2.941h-3.766c-.235-1.03-.382-2-.382-2.941v-5.296c0-.294-.088-.529-.294-.706-.206-.205-.442-.323-.736-.323h-1.177v9.325H19.71V15.21h-.03zm4.618-4.09c.383 0 .706-.117.971-.382.294-.264.441-.588.441-.941V6.03c0-.295-.117-.56-.382-.795-.235-.235-.5-.353-.794-.353h-1.089V11.15h.853v-.03zM40.566 15.209c.03-.089.03-.177.03-.236s0-.147.03-.235c.058-.353.088-.706.176-1.06l.176-1.058c.089-.441.177-.883.236-1.295.059-.44.147-.882.206-1.294.058-.441.147-.853.206-1.265.088-.441.176-.882.235-1.294.088-.53.176-1.06.265-1.56.088-.529.176-1.058.264-1.559.089-.5.177-1 .236-1.53.088-.529.176-1.058.264-1.558h3.766c.088.47.176.941.235 1.412.059.47.147.941.236 1.412.088.559.176 1.088.264 1.647.089.559.177 1.089.265 1.647.059.236.088.471.147.706.059.206.088.442.088.677l.236 1.412c.059.441.147.883.206 1.294.059.412.147.824.235 1.236.059.294.088.559.147.853.059.294.088.56.147.853.059.294.088.56.147.853l1.471 8.914h-3.765l-.442-3.56h-2.912l-.47 3.56h-3.766l1.441-8.973zm5.237 1.647c-.03-.177-.971-7.56-1-7.884-.06.324-.971 7.707-1 7.884h2zM64.895 24.387a5.018 5.018 0 0 1-2.442-.618 5.327 5.327 0 0 1-1.794-1.735 4.936 4.936 0 0 1-.647-2.413V5.766c0-.883.206-1.677.647-2.383a4.626 4.626 0 0 1 1.794-1.736A4.819 4.819 0 0 1 64.895 1c.883 0 1.677.206 2.412.647.765.412 1.353 1 1.824 1.736.441.706.677 1.53.677 2.383v3.412h-3.766V5.736a.95.95 0 0 0-.382-.706 1.09 1.09 0 0 0-.765-.294c-.324 0-.588.118-.794.324-.236.206-.324.47-.294.794V19.739c0 .294.088.559.294.794.235.206.5.324.794.324.324 0 .588-.118.794-.324.236-.206.324-.47.324-.794v-4.972h3.765v4.854c0 .883-.235 1.707-.676 2.442a4.851 4.851 0 0 1-1.824 1.706 4.797 4.797 0 0 1-2.383.618zM82.161 14.385V4.853h-2.677V1.207h9.002V4.854h-2.56v19.268h-3.765v-9.737zM118.405 15.209V1.177h3.766v19.239h3.942v3.677h-7.678v-8.884h-.03zM98.607 15.209c.029-.089.029-.177.029-.236s0-.147.03-.235c.058-.353.088-.706.176-1.06l.177-1.058c.088-.441.176-.883.235-1.295.059-.44.147-.882.206-1.294.059-.441.147-.853.206-1.265.088-.441.176-.882.235-1.294.088-.53.176-1.06.265-1.56.088-.529.176-1.058.264-1.559.089-.5.177-1 .236-1.53.088-.529.176-1.058.265-1.558h3.765c.088.47.177.941.235 1.412.059.47.147.941.236 1.412.088.559.176 1.088.264 1.647.089.559.177 1.089.265 1.647.059.236.088.471.147.706a2.5 2.5 0 0 1 .089.677l.235 1.412c.059.441.147.883.206 1.294.059.412.147.824.235 1.236.059.294.088.559.147.853.059.294.088.56.147.853.059.294.089.56.147.853l1.471 8.914h-3.795l-.441-3.56h-2.912l-.471 3.501h-3.765l1.47-8.913zm5.236 1.676c-.029-.176-.971-7.56-1-7.884-.059.324-.971 7.708-1 7.884h2z" fill="#fff"/>
</svg>
