<svg width="20" height="18" viewBox="0 0 20 18" fill="none" xmlns="http://www.w3.org/2000/svg">
<path d="M10.8227 0.486445L19.8727 16.5405C19.9561 16.6884 20 16.8562 20 17.027C20 17.1978 19.9561 17.3656 19.8727 17.5135C19.7893 17.6614 19.6694 17.7842 19.525 17.8696C19.3806 17.955 19.2168 18 19.05 18L0.950007 18C0.783243 18 0.619419 17.955 0.475 17.8696C0.33058 17.7842 0.210654 17.6614 0.127274 17.5135C0.0438942 17.3656 -1.05912e-06 17.1978 0 17.027C1.05916e-06 16.8562 0.0438985 16.6884 0.12728 16.5405L9.17727 0.486445C9.26066 0.338545 9.38059 0.21573 9.52501 0.130341C9.66942 0.0449529 9.83324 0 10 0C10.1668 0 10.3306 0.0449529 10.475 0.130341C10.6194 0.21573 10.7393 0.338545 10.8227 0.486445ZM2.59546 16.054L17.4045 16.054L10 2.91888L2.59546 16.054ZM9.04997 13.1351H10.95V15.0811H9.04997V13.1351ZM9.04997 6.3243L10.95 6.3243L10.95 11.1892H9.04997L9.04997 6.3243Z" fill="#A3A29F"/>
</svg>
