<svg width="36" height="36" viewBox="0 0 36 36" fill="none" xmlns="http://www.w3.org/2000/svg">
<circle cx="18" cy="18" r="18" fill="#2E2833"/>
<circle cx="18" cy="18" r="17.5" stroke="white" stroke-opacity="0.04"/>
<path d="M23.9062 13.9468V13.3594C23.9062 10.7142 19.9164 8.71875 14.625 8.71875C9.33363 8.71875 5.34375 10.7142 5.34375 13.3594V17.5781C5.34375 19.7814 8.1123 21.5321 12.0938 22.0563V22.6406C12.0938 25.2858 16.0836 27.2812 21.375 27.2812C26.6664 27.2812 30.6562 25.2858 30.6562 22.6406V18.4219C30.6562 16.2387 27.9752 14.4858 23.9062 13.9468ZM28.9688 18.4219C28.9688 19.8162 25.7214 21.375 21.375 21.375C20.9816 21.375 20.5914 21.3613 20.2064 21.336C22.4814 20.507 23.9062 19.1602 23.9062 17.5781V15.6523C27.0566 16.1216 28.9688 17.3957 28.9688 18.4219ZM12.0938 20.3467V17.8376C12.933 17.9469 13.7786 18.0012 14.625 18C15.4714 18.0012 16.317 17.9469 17.1562 17.8376V20.3467C16.3182 20.4705 15.4721 20.5322 14.625 20.5312C13.7779 20.5322 12.9318 20.4705 12.0938 20.3467ZM22.2188 16.0942V17.5781C22.2188 18.463 20.9099 19.4133 18.8438 19.9902V17.5254C20.2054 17.1953 21.3581 16.7038 22.2188 16.0942ZM14.625 10.4062C18.9714 10.4062 22.2188 11.9651 22.2188 13.3594C22.2188 14.7537 18.9714 16.3125 14.625 16.3125C10.2786 16.3125 7.03125 14.7537 7.03125 13.3594C7.03125 11.9651 10.2786 10.4062 14.625 10.4062ZM7.03125 17.5781V16.0942C7.89188 16.7038 9.04465 17.1953 10.4062 17.5254V19.9902C8.34012 19.4133 7.03125 18.463 7.03125 17.5781ZM13.7812 22.6406V22.2008C14.0586 22.2114 14.3392 22.2188 14.625 22.2188C15.0342 22.2188 15.4339 22.205 15.8263 22.1818C16.2621 22.3379 16.7061 22.4702 17.1562 22.5784V25.0527C15.0901 24.4758 13.7812 23.5255 13.7812 22.6406ZM18.8438 25.4092V22.8937C19.6828 23.0065 20.5284 23.0629 21.375 23.0625C22.2214 23.0637 23.067 23.0094 23.9062 22.9001V25.4092C22.2277 25.6553 20.5223 25.6553 18.8438 25.4092ZM25.5938 25.0527V22.5879C26.9554 22.2578 28.1081 21.7663 28.9688 21.1567V22.6406C28.9688 23.5255 27.6599 24.4758 25.5938 25.0527Z" fill="#DCC8F0"/>
</svg>
