<svg width="24" height="24" viewBox="0 0 24 24" fill="none" xmlns="http://www.w3.org/2000/svg">
<rect width="24" height="24" rx="12" fill="#8247E5"/>
<mask id="mask0_15425_186" style="mask-type:luminance" maskUnits="userSpaceOnUse" x="4" y="5" width="16" height="14">
<path d="M19.7779 5.18912H4.04707V18.9715H19.7779V5.18912Z" fill="white"/>
</mask>
<g mask="url(#mask0_15425_186)">
<path d="M15.9289 9.38649C15.6409 9.22123 15.2725 9.22123 14.9466 9.38649L12.6515 10.7463L11.093 11.6104L8.84039 12.9655C8.55231 13.1307 8.18396 13.1307 7.8581 12.9655L6.09659 11.8937C5.80851 11.7284 5.60544 11.3979 5.60544 11.0296V8.97099C5.60544 8.64047 5.77073 8.31468 6.09659 8.10693L7.8581 7.07762C8.14617 6.91236 8.51453 6.91236 8.84039 7.07762L10.6019 8.14943C10.89 8.31468 11.093 8.6452 11.093 9.01348V10.3733L12.6515 9.46676V8.06916C12.6515 7.73864 12.4862 7.41285 12.1603 7.2051L8.88289 5.26924C8.59482 5.10398 8.22646 5.10398 7.9006 5.26924L4.54287 7.2476C4.21701 7.41285 4.05172 7.74337 4.05172 8.06916V11.9362C4.05172 12.2667 4.21701 12.5925 4.54287 12.8002L7.86282 14.7361C8.1509 14.9013 8.51926 14.9013 8.84511 14.7361L11.0978 13.4188L12.6562 12.5122L14.9089 11.1949C15.1969 11.0296 15.5653 11.0296 15.8912 11.1949L17.6527 12.2242C17.9407 12.3894 18.1438 12.72 18.1438 13.0882V15.1469C18.1438 15.4774 17.9785 15.8032 17.6527 16.0109L15.9337 17.0402C15.6456 17.2055 15.2772 17.2055 14.9514 17.0402L13.1851 16.0109C12.8971 15.8457 12.694 15.5152 12.694 15.1469V13.8295L11.1355 14.7361V16.0959C11.1355 16.4264 11.3008 16.7522 11.6267 16.96L14.9466 18.8958C15.2347 19.0611 15.6031 19.0611 15.9289 18.8958L19.2489 16.96C19.537 16.7947 19.74 16.4642 19.74 16.0959V12.1864C19.74 11.8559 19.5747 11.5301 19.2489 11.3224L15.9289 9.38649Z" fill="white"/>
</g>
</svg>
