<svg width="297" height="20" viewBox="0 0 297 20" fill="none" xmlns="http://www.w3.org/2000/svg">
<path d="M2.2634 16.3064L2.2634 2.74175L5.8871 2.74175L9.45267 11.4619L10.1309 11.4619L13.6965 2.74175L17.262 2.74175L17.262 16.3064L15.518 16.3064L15.518 4.35013L14.7816 4.35013L11.2161 13.0703L8.30936 13.0703L4.7438 4.35013L4.00743 4.35013L4.00743 16.3064L2.2634 16.3064ZM23.7935 16.5002C22.9538 16.5002 22.1851 16.287 21.4875 15.8607C20.8028 15.4344 20.2538 14.8401 19.8404 14.0779C19.4399 13.3028 19.2397 12.4179 19.2397 11.4231C19.2397 10.4284 19.4399 9.54991 19.8404 8.78771C20.2538 8.01258 20.8028 7.41186 21.4875 6.98554C22.1851 6.55923 22.9538 6.34607 23.7935 6.34607C24.5169 6.34607 25.1887 6.51401 25.8088 6.8499C26.4289 7.17287 26.9069 7.6121 27.2428 8.16761L27.3397 8.16761L27.3397 6.53985L28.8706 6.53985L28.8706 16.3064L27.3397 16.3064L27.3397 14.6786L27.2428 14.6786C26.9069 15.2341 26.4289 15.6798 25.8088 16.0157C25.1887 16.3387 24.5169 16.5002 23.7935 16.5002ZM24.1423 15.0274C24.7624 15.0274 25.305 14.8853 25.7701 14.6011C26.2351 14.304 26.5969 13.8841 26.8552 13.3416C27.1265 12.799 27.2622 12.1595 27.2622 11.4231C27.2622 10.6868 27.1265 10.0473 26.8552 9.50469C26.5969 8.96211 26.2351 8.54871 25.7701 8.2645C25.305 7.96737 24.7624 7.8188 24.1423 7.8188C23.4964 7.8188 22.9279 7.96091 22.437 8.24512C21.959 8.52933 21.5844 8.94273 21.3131 9.48532C21.0547 10.0279 20.9255 10.6738 20.9255 11.4231C20.9255 12.1595 21.0547 12.8054 21.3131 13.3609C21.5844 13.9035 21.959 14.3169 22.437 14.6011C22.9279 14.8853 23.4964 15.0274 24.1423 15.0274ZM35.0585 16.5002C34.2188 16.5002 33.4501 16.287 32.7525 15.8607C32.0678 15.4344 31.5188 14.8401 31.1054 14.0779C30.7049 13.3028 30.5047 12.4179 30.5047 11.4231C30.5047 10.4284 30.7049 9.54991 31.1054 8.78771C31.5188 8.01258 32.0678 7.41186 32.7525 6.98554C33.4501 6.55923 34.2188 6.34607 35.0585 6.34607C35.782 6.34607 36.4473 6.51401 37.0545 6.8499C37.6616 7.17287 38.1202 7.59272 38.4303 8.10947L38.5272 8.10947L38.5272 2.74175L40.1356 2.74175L40.1356 16.3064L38.6047 16.3064L38.6047 14.6786L38.5078 14.6786C38.1719 15.2341 37.6939 15.6798 37.0738 16.0157C36.4537 16.3387 35.782 16.5002 35.0585 16.5002ZM35.4073 15.0274C36.0274 15.0274 36.57 14.8853 37.0351 14.6011C37.5002 14.304 37.8619 13.8841 38.1202 13.3416C38.3915 12.799 38.5272 12.1595 38.5272 11.4231C38.5272 10.6868 38.3915 10.0473 38.1202 9.50469C37.8619 8.96211 37.5002 8.54871 37.0351 8.2645C36.57 7.96737 36.0274 7.8188 35.4073 7.8188C34.7614 7.8188 34.193 7.96091 33.702 8.24512C33.2241 8.52933 32.8494 8.94273 32.5781 9.48532C32.3197 10.0279 32.1906 10.6738 32.1906 11.4231C32.1906 12.1595 32.3197 12.8054 32.5781 13.3609C32.8494 13.9035 33.2241 14.3169 33.702 14.6011C34.193 14.8853 34.7614 15.0274 35.4073 15.0274ZM46.808 16.5002C45.8778 16.5002 45.0252 16.2806 44.2501 15.8413C43.4879 15.3892 42.8807 14.7755 42.4285 14.0004C41.9893 13.2253 41.7697 12.3662 41.7697 11.4231C41.7697 10.4801 41.9893 9.62096 42.4285 8.84584C42.8807 8.07072 43.4879 7.46354 44.2501 7.0243C45.0252 6.57215 45.8778 6.34607 46.808 6.34607C47.7123 6.34607 48.5391 6.56569 49.2884 7.00492C50.0377 7.44416 50.6319 8.0578 51.0712 8.84584C51.5104 9.63388 51.73 10.5317 51.73 11.5394C51.73 11.6169 51.73 11.688 51.73 11.7525C51.73 11.8042 51.73 11.8624 51.73 11.927L42.6805 11.927L42.6805 10.5899L50.7417 10.5899L50.1023 11.0549C50.0635 10.4607 49.902 9.91809 49.6178 9.42718C49.3336 8.92335 48.946 8.52933 48.4551 8.24512C47.9771 7.96091 47.4281 7.8188 46.808 7.8188C46.1491 7.8188 45.5678 7.97383 45.064 8.28387C44.5601 8.58101 44.1661 9.00732 43.8819 9.56283C43.5977 10.1054 43.4556 10.7255 43.4556 11.4231C43.4556 12.1207 43.5977 12.7473 43.8819 13.3028C44.1661 13.8454 44.5601 14.2717 45.064 14.5817C45.5678 14.8789 46.1491 15.0274 46.808 15.0274C47.5444 15.0274 48.1644 14.8595 48.6683 14.5236C49.185 14.1877 49.5661 13.7356 49.8116 13.1671L51.4975 13.1671C51.3166 13.7614 51.013 14.3169 50.5867 14.8337C50.1604 15.3375 49.6243 15.7444 48.9783 16.0545C48.3324 16.3516 47.6089 16.5002 46.808 16.5002ZM58.2133 16.3064L56.1399 6.53985L57.787 6.53985L59.4729 14.8337L60.2868 14.8337L61.9921 6.53985L64.86 6.53985L66.5653 14.8337L67.3985 14.8337L69.0651 6.53985L70.6928 6.53985L68.6194 16.3064L65.422 16.3064L63.6973 8.01258L63.116 8.01258L61.4495 16.3064L58.2133 16.3064ZM72.2509 16.3064L72.2509 6.53985L73.8593 6.53985L73.8593 16.3064L72.2509 16.3064ZM73.0454 5.04774C72.7483 5.04774 72.5028 4.95085 72.3091 4.75707C72.1153 4.55037 72.0184 4.30491 72.0184 4.0207C72.0184 3.73649 72.1153 3.49749 72.3091 3.30371C72.5028 3.09701 72.7483 2.99366 73.0454 2.99366C73.3296 2.99366 73.5686 3.09701 73.7624 3.30371C73.9691 3.49749 74.0725 3.73649 74.0725 4.0207C74.0725 4.30491 73.9691 4.55037 73.7624 4.75707C73.5686 4.95085 73.3296 5.04774 73.0454 5.04774ZM77.4686 16.3064L77.4686 4.07883L79.077 4.07883L79.077 14.8337L82.255 14.8337L82.255 16.3064L77.4686 16.3064ZM75.2983 8.01258L75.2983 6.53985L81.6543 6.53985L81.6543 8.01258L75.2983 8.01258ZM83.8051 16.3064L83.8051 2.74175L85.4135 2.74175L85.4135 8.05134L85.5104 8.05134C85.8075 7.54751 86.2403 7.14057 86.8087 6.83052C87.39 6.50755 88.0554 6.34607 88.8046 6.34607C89.5927 6.34607 90.2645 6.50755 90.82 6.83052C91.3884 7.14057 91.8212 7.6121 92.1183 8.24512C92.4154 8.86522 92.564 9.60804 92.564 10.4736L92.564 16.3064L90.9556 16.3064L90.9556 10.7449C90.9556 9.81474 90.7425 9.09775 90.3161 8.59392C89.8898 8.07717 89.2633 7.8188 88.4365 7.8188C87.868 7.8188 87.3513 7.94799 86.8862 8.20636C86.4211 8.46474 86.0594 8.83292 85.801 9.31091C85.5427 9.7889 85.4135 10.338 85.4135 10.958L85.4135 16.3064L83.8051 16.3064ZM99.1441 16.3064L99.1441 2.74175L100.752 2.74175L100.752 14.8337L103 14.8337L103 16.3064L99.1441 16.3064ZM108.276 16.5002C107.333 16.5002 106.48 16.287 105.718 15.8607C104.969 15.4215 104.375 14.8143 103.935 14.0392C103.509 13.264 103.296 12.392 103.296 11.4231C103.296 10.4542 103.509 9.5822 103.935 8.80708C104.375 8.03196 104.969 7.43124 105.718 7.00492C106.48 6.56569 107.333 6.34607 108.276 6.34607C109.232 6.34607 110.085 6.56569 110.834 7.00492C111.596 7.43124 112.19 8.03196 112.617 8.80708C113.043 9.5822 113.256 10.4542 113.256 11.4231C113.256 12.392 113.043 13.264 112.617 14.0392C112.19 14.8143 111.596 15.4215 110.834 15.8607C110.085 16.287 109.232 16.5002 108.276 16.5002ZM108.276 15.0274C108.948 15.0274 109.529 14.8789 110.02 14.5817C110.524 14.2846 110.911 13.8648 111.183 13.3222C111.454 12.7796 111.59 12.1466 111.59 11.4231C111.59 10.6997 111.454 10.0667 111.183 9.52407C110.911 8.98148 110.524 8.56163 110.02 8.2645C109.529 7.96737 108.948 7.8188 108.276 7.8188C107.617 7.8188 107.036 7.96737 106.532 8.2645C106.041 8.56163 105.66 8.98148 105.389 9.52407C105.117 10.0667 104.982 10.6997 104.982 11.4231C104.982 12.1466 105.117 12.7796 105.389 13.3222C105.66 13.8648 106.041 14.2846 106.532 14.5817C107.036 14.8789 107.617 15.0274 108.276 15.0274ZM116.432 16.3064L113.642 6.53985L115.347 6.53985L117.673 14.8337L119.145 14.8337L121.49 6.53985L123.157 6.53985L120.366 16.3064L116.432 16.3064ZM128.574 16.5002C127.644 16.5002 126.792 16.2806 126.016 15.8413C125.254 15.3892 124.647 14.7755 124.195 14.0004C123.756 13.2253 123.536 12.3662 123.536 11.4231C123.536 10.4801 123.756 9.62096 124.195 8.84584C124.647 8.07072 125.254 7.46354 126.016 7.0243C126.792 6.57214 127.644 6.34607 128.574 6.34607C129.479 6.34607 130.305 6.56569 131.055 7.00492C131.804 7.44416 132.398 8.0578 132.838 8.84584C133.277 9.63388 133.496 10.5317 133.496 11.5394C133.496 11.6169 133.496 11.688 133.496 11.7525C133.496 11.8042 133.496 11.8624 133.496 11.927L124.447 11.927L124.447 10.5899L132.508 10.5899L131.869 11.0549C131.83 10.4607 131.668 9.91809 131.384 9.42718C131.1 8.92335 130.712 8.52933 130.221 8.24512C129.743 7.96091 129.194 7.8188 128.574 7.8188C127.915 7.8188 127.334 7.97382 126.83 8.28387C126.326 8.581 125.932 9.00732 125.648 9.56283C125.364 10.1054 125.222 10.7255 125.222 11.4231C125.222 12.1207 125.364 12.7473 125.648 13.3028C125.932 13.8454 126.326 14.2717 126.83 14.5817C127.334 14.8789 127.915 15.0274 128.574 15.0274C129.311 15.0274 129.931 14.8595 130.435 14.5236C130.951 14.1877 131.332 13.7356 131.578 13.1671L133.264 13.1671C133.083 13.7614 132.779 14.3169 132.353 14.8337C131.927 15.3375 131.391 15.7444 130.745 16.0545C130.099 16.3516 129.375 16.5002 128.574 16.5002ZM144.137 16.5002C143.401 16.5002 142.722 16.3387 142.102 16.0157C141.495 15.6798 141.023 15.2341 140.688 14.6786L140.591 14.6786L140.591 16.3064L139.06 16.3064L139.06 2.74175L140.668 2.74175L140.668 8.10947L140.765 8.10947C141.075 7.59272 141.527 7.17286 142.122 6.8499C142.729 6.51401 143.401 6.34607 144.137 6.34607C144.977 6.34607 145.739 6.55923 146.424 6.98554C147.121 7.41186 147.67 8.01258 148.071 8.7877C148.471 9.54991 148.671 10.4284 148.671 11.4231C148.671 12.4179 148.471 13.3028 148.071 14.0779C147.67 14.8401 147.121 15.4344 146.424 15.8607C145.739 16.287 144.977 16.5002 144.137 16.5002ZM143.788 15.0274C144.434 15.0274 144.996 14.8853 145.474 14.6011C145.965 14.3169 146.34 13.9035 146.598 13.3609C146.869 12.8054 147.005 12.1595 147.005 11.4231C147.005 10.6738 146.869 10.0279 146.598 9.48531C146.34 8.94273 145.965 8.52933 145.474 8.24512C144.996 7.96091 144.434 7.8188 143.788 7.8188C143.168 7.8188 142.625 7.96737 142.16 8.2645C141.695 8.54871 141.327 8.96211 141.056 9.50469C140.797 10.0473 140.668 10.6868 140.668 11.4231C140.668 12.1595 140.797 12.799 141.056 13.3415C141.327 13.8841 141.695 14.304 142.16 14.6011C142.625 14.8853 143.168 15.0274 143.788 15.0274ZM152.945 19.9882L154.244 15.6475L154.728 16.3064L151.938 16.3064L149.031 6.53985L150.736 6.53985L153.159 14.8337L155.232 14.8337L154.341 15.3375L156.918 6.53985L158.623 6.53985L154.651 19.9882L152.945 19.9882Z" fill="#8F8796"/>
<path d="M245.542 6.88462V14.3579H249.024V15.9715H243.78V6.88462H241.402V5.27107H243.78V2.20447H245.542V5.27107H248.366V6.88462H245.542Z" fill="#8F8796"/>
<path d="M231.806 15.9712V5.27078H233.483V6.99049H233.589C233.943 6.41017 234.438 5.94309 235.075 5.58925C235.712 5.2354 236.448 5.05847 237.283 5.05847C238.571 5.05847 239.576 5.45478 240.298 6.2474C241.034 7.02587 241.402 8.13696 241.402 9.58066V15.9712H239.64V9.87789C239.64 8.85881 239.406 8.07326 238.939 7.52126C238.472 6.9551 237.786 6.67202 236.88 6.67202C235.917 6.67202 235.125 6.99049 234.502 7.62742C233.879 8.26434 233.568 9.09235 233.568 10.1114V15.9712H231.806Z" fill="#8F8796"/>
<path d="M230.684 11.173H221.64C221.753 12.1921 222.142 13.013 222.808 13.6358C223.473 14.2585 224.301 14.5699 225.292 14.5699C226.112 14.5699 226.799 14.3859 227.351 14.0179C227.917 13.6358 228.328 13.1404 228.582 12.5318H230.429C230.104 13.5508 229.488 14.4142 228.582 15.1219C227.691 15.8296 226.594 16.1835 225.292 16.1835C224.272 16.1835 223.338 15.9429 222.489 15.4616C221.654 14.9662 220.989 14.2939 220.493 13.4447C220.012 12.5955 219.771 11.6542 219.771 10.621C219.771 9.58774 220.012 8.6465 220.493 7.79726C220.989 6.94802 221.654 6.28279 222.489 5.80155C223.338 5.30617 224.272 5.05847 225.292 5.05847C226.296 5.05847 227.209 5.29909 228.03 5.78032C228.851 6.26156 229.495 6.93387 229.962 7.79726C230.444 8.66065 230.684 9.64435 230.684 10.7484V11.173ZM225.292 6.67202C224.357 6.67202 223.565 6.94802 222.914 7.50003C222.277 8.05203 221.873 8.78804 221.703 9.70805H228.837C228.667 8.81635 228.264 8.08742 227.627 7.52126C227.004 6.9551 226.226 6.67202 225.292 6.67202Z" fill="#8F8796"/>
<path d="M213.779 16.1835C212.746 16.1835 211.804 15.9429 210.955 15.4616C210.12 14.9804 209.462 14.3152 208.981 13.4659C208.499 12.6167 208.259 11.6684 208.259 10.621C208.259 9.57358 208.499 8.62527 208.981 7.77603C209.462 6.92679 210.12 6.26156 210.955 5.78032C211.804 5.29909 212.746 5.05847 213.779 5.05847C214.699 5.05847 215.513 5.24247 216.22 5.61048C216.942 5.97848 217.523 6.45971 217.961 7.05418C218.414 7.63449 218.719 8.25726 218.874 8.9225H217.07C216.843 8.28557 216.44 7.7548 215.859 7.33018C215.279 6.89141 214.586 6.67202 213.779 6.67202C212.689 6.67202 211.804 7.04002 211.125 7.77603C210.446 8.49788 210.106 9.4462 210.106 10.621C210.106 11.7958 210.446 12.7511 211.125 13.4872C211.804 14.209 212.689 14.5699 213.779 14.5699C214.586 14.5699 215.279 14.3576 215.859 13.933C216.44 13.4942 216.843 12.9564 217.07 12.3195H218.874C218.719 12.9847 218.414 13.6145 217.961 14.209C217.523 14.7893 216.942 15.2635 216.22 15.6315C215.513 15.9995 214.699 16.1835 213.779 16.1835Z" fill="#8F8796"/>
<path d="M189.766 16.1829C188.831 16.1829 187.982 15.9494 187.218 15.4823C186.468 15.0152 185.873 14.3642 185.435 13.5291C184.996 12.6798 184.776 11.7103 184.776 10.6204C184.776 9.53057 184.996 8.56808 185.435 7.73299C185.873 6.88375 186.468 6.22559 187.218 5.75851C187.982 5.29143 188.831 5.0579 189.766 5.0579C190.572 5.0579 191.301 5.24189 191.952 5.60989C192.618 5.96374 193.12 6.42375 193.46 6.98991H193.566L193.566 2.20448H195.328L195.328 15.9706H193.651V14.1872H193.545C193.177 14.7958 192.653 15.2842 191.974 15.6522C191.294 16.006 190.558 16.1829 189.766 16.1829ZM190.148 14.5694C191.167 14.5694 191.988 14.2155 192.611 13.5078C193.248 12.8001 193.566 11.8377 193.566 10.6204C193.566 9.40318 193.248 8.44069 192.611 7.73299C191.988 7.02529 191.167 6.67144 190.148 6.67144C189.072 6.67144 188.216 7.02529 187.579 7.73299C186.942 8.42654 186.623 9.38903 186.623 10.6204C186.623 11.8377 186.942 12.8001 187.579 13.5078C188.216 14.2155 189.072 14.5694 190.148 14.5694Z" fill="#8F8796"/>
<path d="M207.362 11.1725H198.318C198.431 12.1916 198.82 13.0125 199.485 13.6353C200.15 14.2581 200.978 14.5694 201.969 14.5694C202.79 14.5694 203.477 14.3854 204.029 14.0174C204.595 13.6353 205.005 13.1399 205.26 12.5313H207.107C206.782 13.5504 206.166 14.4137 205.26 15.1214C204.368 15.8291 203.271 16.183 201.969 16.183C200.95 16.183 200.016 15.9424 199.167 15.4611C198.332 14.9658 197.666 14.2934 197.171 13.4442C196.69 12.595 196.449 11.6537 196.449 10.6205C196.449 9.58725 196.69 8.64601 197.171 7.79677C197.666 6.94754 198.332 6.2823 199.167 5.80107C200.016 5.30568 200.95 5.05798 201.969 5.05798C202.974 5.05798 203.887 5.2986 204.708 5.77984C205.529 6.26107 206.173 6.93338 206.64 7.79677C207.121 8.66016 207.362 9.64387 207.362 10.7479V11.1725ZM201.969 6.67153C201.035 6.67153 200.242 6.94754 199.591 7.49954C198.954 8.05154 198.551 8.78755 198.381 9.70756H205.515C205.345 8.81586 204.942 8.08693 204.305 7.52077C203.682 6.95461 202.903 6.67153 201.969 6.67153Z" fill="#8F8796"/>
<path d="M177.357 0.484253H174.492C174.172 0.484253 173.913 0.743652 173.913 1.06392V3.34634C173.913 3.66661 173.653 3.92601 173.333 3.92601H170.469C170.238 3.92601 170.017 4.01767 169.854 4.1807L166.922 7.11307C166.759 7.2761 166.667 7.49746 166.667 7.72788V13.6716C166.667 13.9919 166.926 14.2513 167.247 14.2513H169.71C170.03 14.2513 170.29 13.9919 170.29 13.6716V7.94743C170.29 7.62716 170.549 7.36776 170.87 7.36776H173.333C173.653 7.36776 173.913 7.10836 173.913 6.7881V4.65059C173.913 4.33032 174.172 4.07092 174.492 4.07092H176.956C177.276 4.07092 177.536 4.33032 177.536 4.65059V13.6716C177.536 13.9919 177.276 14.2513 176.956 14.2513H170.87C170.549 14.2513 170.29 14.5107 170.29 14.8309V17.1134C170.29 17.4336 170.549 17.693 170.87 17.693H177.338C177.567 17.693 177.787 17.6021 177.951 17.4401L180.902 14.5063C181.066 14.3433 181.159 14.1212 181.159 13.8897V4.16621C181.159 4.01259 181.097 3.86514 180.989 3.75646L177.972 0.738943C177.808 0.575912 177.587 0.484253 177.357 0.484253Z" fill="#8F8796"/>
<path d="M256.6 16.3064L256.6 2.74175L261.019 2.74175C262.349 2.74175 263.544 3.03242 264.603 3.61376C265.663 4.1951 266.49 5.00252 267.084 6.03602C267.691 7.0566 267.995 8.21928 267.995 9.52407C267.995 10.8289 267.691 11.998 267.084 13.0315C266.49 14.0521 265.663 14.853 264.603 15.4344C263.544 16.0157 262.349 16.3064 261.019 16.3064L256.6 16.3064ZM261.019 14.6399C262.026 14.6399 262.924 14.4267 263.712 14.0004C264.5 13.5741 265.107 12.9734 265.534 12.1982C265.973 11.4231 266.192 10.5317 266.192 9.52407C266.192 8.51641 265.973 7.62502 265.534 6.8499C265.107 6.07478 264.5 5.47406 263.712 5.04774C262.924 4.62142 262.026 4.40826 261.019 4.40826L258.344 4.40826L258.344 14.6399L261.019 14.6399ZM268.101 16.3064L272.073 2.74175L276.666 2.74175L280.638 16.3064L278.836 16.3064L275.368 4.35013L273.333 4.35013L269.884 16.3064L268.101 16.3064ZM270.271 12.3533L270.775 10.6868L277.964 10.6868L278.468 12.3533L270.271 12.3533ZM287.715 16.5196C286.423 16.5196 285.241 16.216 284.169 15.6088C283.109 15.0016 282.27 14.1683 281.649 13.109C281.042 12.0368 280.739 10.8418 280.739 9.52407C280.739 8.20636 281.042 7.01784 281.65 5.95851C282.27 4.88625 283.109 4.04654 284.169 3.43936C285.241 2.83218 286.423 2.52859 287.715 2.52859C288.994 2.52859 290.163 2.83218 291.222 3.43936C292.295 4.04654 293.134 4.88625 293.741 5.95851C294.362 7.01784 294.672 8.20636 294.672 9.52407C294.672 10.8418 294.362 12.0368 293.741 13.109C293.134 14.1683 292.295 15.0016 291.222 15.6088C290.163 16.216 288.994 16.5196 287.715 16.5196ZM287.715 14.853C288.684 14.853 289.556 14.627 290.331 14.1748C291.119 13.7097 291.733 13.0767 292.172 12.2758C292.624 11.4748 292.85 10.5576 292.85 9.52407C292.85 8.49057 292.624 7.57335 292.172 6.77239C291.733 5.97143 291.119 5.34487 290.331 4.89271C289.556 4.42764 288.684 4.1951 287.715 4.1951C286.733 4.1951 285.848 4.42764 285.06 4.89271C284.285 5.34487 283.671 5.97143 283.219 6.77239C282.78 7.57335 282.56 8.49057 282.56 9.52407C282.56 10.5576 282.78 11.4748 283.219 12.2758C283.671 13.0767 284.285 13.7097 285.06 14.1748C285.848 14.627 286.733 14.853 287.715 14.853Z" fill="#8F8796"/>
</svg>
