<svg xmlns="http://www.w3.org/2000/svg" width="279" height="38" viewBox="0 0 279 38" fill="none">
    <path d="M8.08017 2.64165C9.50134 1.22047 11.4289 0.422064 13.4387 0.422063L264.581 0.421878C266.59 0.421876 268.518 1.22028 269.939 2.64145L275.377 8.07976C276.799 9.50094 277.597 11.4285 277.597 13.4383V24.2602C277.597 26.2701 276.799 28.1976 275.377 29.6188L269.939 35.0571C268.518 36.4782 266.59 37.2766 264.581 37.2767L13.4387 37.2768C11.4289 37.2768 9.50134 36.4784 8.08016 35.0573L2.64145 29.6185C1.22028 28.1974 0.421875 26.2698 0.421875 24.26V13.4389C0.421875 11.4291 1.22028 9.50154 2.64146 8.08036L8.08017 2.64165Z" stroke="#8F8796" stroke-width="0.84375"/>
</svg>