<svg width="32" height="32" viewBox="0 0 32 32" fill="none" xmlns="http://www.w3.org/2000/svg">
<path d="M26.5588 19.6958C24.6664 16.7436 20.552 15.2969 17.2001 15.0726C12.8906 14.7754 9.60459 17.3842 7.10776 20.5744C12.1406 26.6012 20.7666 27.1526 26.2415 21.2645C26.5718 20.898 27.1001 21.4362 26.7831 21.8061C21.4464 28.0806 10.9977 27.6249 6.56249 20.5511H6.56226C6.52886 20.4885 6.52886 20.4132 6.56295 20.3505C6.59681 20.2881 6.65993 20.2468 6.73088 20.2409C8.42813 16.3969 13.0479 13.7481 17.1994 14.0353C20.8618 14.2864 25.4058 15.9143 27.3937 19.2068C27.7142 19.7451 26.8918 20.2174 26.5582 19.6956L26.5588 19.6958ZM22.6091 7.08425C21.8574 8.33945 21.3499 9.72551 21.1131 11.1694C21.0208 11.6713 21.7736 11.8927 21.8892 11.384C22.2393 10.0072 22.6726 8.65298 23.187 7.3286C23.3126 6.98192 22.794 6.79377 22.6091 7.08425ZM29.0387 10.0563V10.0565C27.8459 10.9431 26.8731 12.0922 26.1954 13.4148C25.9279 13.9168 26.6874 14.366 26.9615 13.864C27.6436 12.6692 28.492 11.5773 29.4812 10.6211C29.7553 10.3403 29.3888 9.81857 29.0486 10.0597L29.0387 10.0563ZM7.84095 8.59008C8.34381 10.1745 9.04042 11.6907 9.91484 13.1046C10.0351 13.3142 10.3028 13.3868 10.5124 13.2663C10.7222 13.1461 10.7946 12.8784 10.6743 12.6685C9.84573 11.271 9.10559 9.82294 8.45832 8.33256C8.30652 8.00223 7.74489 8.23351 7.85735 8.58687L7.84095 8.59008ZM2.44144 12.7577C3.22417 14.2571 4.59778 15.5549 5.9419 16.5489C6.35148 16.8527 6.73111 16.1725 6.33812 15.8719C5.01729 14.8514 4.00322 13.6561 2.91019 12.3979C2.67891 12.1337 2.29259 12.4705 2.44465 12.7579L2.44144 12.7577ZM15.1786 6.09336C15.0943 7.74154 15.1586 9.39391 15.3702 11.0306C15.4265 11.4996 16.1694 11.506 16.1134 11.0306C15.9217 9.39574 15.839 7.74455 15.7301 6.09336C15.7147 5.95285 15.5958 5.84619 15.4544 5.84619C15.3129 5.84619 15.194 5.95285 15.1786 6.09336ZM20.7728 21.0366C20.67 21.9756 20.2351 22.8467 19.5468 23.4933C18.8583 24.14 17.9615 24.5196 17.018 24.5636C15.0364 24.6099 13.4514 23.0443 13.1376 21.1653C13.1012 20.9474 13.4283 20.835 13.4679 21.073V21.0727C13.6651 22.1045 14.2763 23.0102 15.1588 23.5795C14.7268 23.1909 14.446 22.6622 14.3661 22.0868C14.2929 21.3365 14.5529 20.5918 15.0777 20.0507C15.6024 19.5094 16.3384 19.2263 17.0908 19.2765C18.5736 19.4053 19.8548 20.9277 19.4586 22.437V22.4368C19.4159 22.5964 19.3549 22.7505 19.2768 22.8959C19.6984 22.4176 19.9633 21.8217 20.0363 21.1885C20.4426 17.4502 15.2975 16.5355 14.013 19.904C13.8612 20.3069 13.227 20.1516 13.3526 19.7225C14.6175 15.4687 21.1261 16.5487 20.7729 21.0367L20.7728 21.0366ZM16.1725 22.4897C16.343 22.6703 16.575 22.7804 16.8226 22.7982C17.0704 22.8159 17.3158 22.7399 17.51 22.5853C17.6982 22.4476 17.8352 22.2513 17.8997 22.0272C17.9644 21.803 17.9527 21.5637 17.8668 21.3469C17.7392 21.0737 17.4943 20.8736 17.2013 20.8028C16.908 20.7321 16.5989 20.7987 16.3607 20.9837C16.1267 21.1516 15.9733 21.4096 15.9375 21.6954C15.9018 21.9813 15.9869 22.2693 16.1725 22.4897Z" fill="#FECB00"/>
</svg>
