<svg width="72" height="72" viewBox="0 0 72 72" fill="none" xmlns="http://www.w3.org/2000/svg">
<circle cx="36" cy="36" r="36" fill="#0E0E0E" fill-opacity="0.68"/>
<path d="M52.7032 26.27C53.1992 26.2705 53.6763 26.4604 54.0369 26.8009C54.3976 27.1414 54.6146 27.6067 54.6437 28.1019C54.6727 28.597 54.5117 29.0845 54.1933 29.4649C53.875 29.8452 53.4234 30.0897 52.9309 30.1482L52.7032 30.1619V49.6213C53.1992 49.6219 53.6763 49.8118 54.0369 50.1523C54.3976 50.4927 54.6146 50.9581 54.6437 51.4532C54.6727 51.9483 54.5117 52.4359 54.1933 52.8162C53.875 53.1966 53.4234 53.441 52.9309 53.4996L52.7032 53.5132H17.6762C17.1802 53.5127 16.7032 53.3227 16.3425 52.9823C15.9819 52.6418 15.7648 52.1764 15.7358 51.6813C15.7067 51.1862 15.8678 50.6986 16.1861 50.3183C16.5045 49.9379 16.956 49.6935 17.4485 49.6349L17.6762 49.6213V30.1619C17.1802 30.1613 16.7032 29.9714 16.3425 29.6309C15.9819 29.2904 15.7648 28.8251 15.7358 28.33C15.7067 27.8348 15.8678 27.3473 16.1861 26.9669C16.5045 26.5866 16.956 26.3422 17.4485 26.2836L17.6762 26.27H52.7032ZM48.8113 30.1619H21.5681V49.6213H25.46V35.9997C25.46 35.4836 25.665 34.9886 26.03 34.6237C26.3949 34.2588 26.8898 34.0537 27.4059 34.0537C27.922 34.0537 28.417 34.2588 28.7819 34.6237C29.1469 34.9886 29.3519 35.4836 29.3519 35.9997V49.6213H33.2438V35.9997C33.2438 35.4836 33.4488 34.9886 33.8137 34.6237C34.1787 34.2588 34.6736 34.0537 35.1897 34.0537C35.7058 34.0537 36.2008 34.2588 36.5657 34.6237C36.9307 34.9886 37.1357 35.4836 37.1357 35.9997V49.6213H41.0276V35.9997C41.0276 35.4836 41.2326 34.9886 41.5975 34.6237C41.9625 34.2588 42.4574 34.0537 42.9735 34.0537C43.4896 34.0537 43.9846 34.2588 44.3495 34.6237C44.7144 34.9886 44.9195 35.4836 44.9195 35.9997V49.6213H48.8113V30.1619ZM46.8654 20.4321C47.3815 20.4321 47.8765 20.6371 48.2414 21.0021C48.6063 21.367 48.8113 21.862 48.8113 22.3781C48.8113 22.8942 48.6063 23.3891 48.2414 23.7541C47.8765 24.119 47.3815 24.324 46.8654 24.324H23.514C22.998 24.324 22.503 24.119 22.1381 23.7541C21.7731 23.3891 21.5681 22.8942 21.5681 22.3781C21.5681 21.862 21.7731 21.367 22.1381 21.0021C22.503 20.6371 22.998 20.4321 23.514 20.4321H46.8654Z" fill="#22C3F8"/>
</svg>
