<svg width="72" height="72" viewBox="0 0 72 72" fill="none" xmlns="http://www.w3.org/2000/svg">
<circle cx="36" cy="36" r="36" fill="#0E0E0E" fill-opacity="0.68"/>
<path d="M45.9032 44.762V53.1994H42.5283V44.762C42.5283 37.251 46.99 30.7812 53.4075 27.8601L54.8047 30.9313C52.1498 32.1389 49.8987 34.0852 48.3202 36.5377C46.7417 38.9902 45.9027 41.8454 45.9032 44.762ZM29.0284 44.762V53.1994H25.6534V44.762C25.6537 41.8456 24.8145 38.9909 23.236 36.5387C21.6575 34.0865 19.4066 32.1404 16.752 30.933L18.1492 27.8601C21.3937 29.3358 24.1448 31.7143 26.074 34.7114C28.0031 37.7085 29.0288 41.1976 29.0284 44.762ZM35.7783 36.3245C33.5406 36.3245 31.3945 35.4356 29.8122 33.8533C28.2298 32.271 27.3409 30.1249 27.3409 27.8871C27.3409 25.6494 28.2298 23.5033 29.8122 21.921C31.3945 20.3386 33.5406 19.4497 35.7783 19.4497C38.0161 19.4497 40.1622 20.3386 41.7445 21.921C43.3268 23.5033 44.2157 25.6494 44.2157 27.8871C44.2157 30.1249 43.3268 32.271 41.7445 33.8533C40.1622 35.4356 38.0161 36.3245 35.7783 36.3245ZM35.7783 32.9496C36.4431 32.9496 37.1014 32.8186 37.7156 32.5642C38.3298 32.3098 38.8879 31.9369 39.358 31.4668C39.8281 30.9967 40.201 30.4386 40.4554 29.8244C40.7098 29.2102 40.8408 28.5519 40.8408 27.8871C40.8408 27.2223 40.7098 26.564 40.4554 25.9498C40.201 25.3356 39.8281 24.7775 39.358 24.3074C38.8879 23.8373 38.3298 23.4644 37.7156 23.21C37.1014 22.9556 36.4431 22.8247 35.7783 22.8247C34.4357 22.8247 33.148 23.358 32.1986 24.3074C31.2492 25.2568 30.7159 26.5445 30.7159 27.8871C30.7159 29.2298 31.2492 30.5174 32.1986 31.4668C33.148 32.4162 34.4357 32.9496 35.7783 32.9496Z" fill="#66B6FF"/>
</svg>
