<svg width="73" height="72" viewBox="0 0 73 72" fill="none" xmlns="http://www.w3.org/2000/svg">
<circle cx="36.5" cy="36" r="36" fill="#0E0E0E" fill-opacity="0.68"/>
<path d="M50.1692 23.2228C47.9643 19.4509 44.9577 17.3735 41.6959 17.3735H32.9493C29.6875 17.3735 26.6809 19.4509 24.476 23.2228C22.2711 26.9948 21.2871 31.4046 21.2871 36.3245C21.2871 41.2445 22.4169 45.9094 24.476 49.4263C26.5351 52.9431 29.6875 55.2756 32.9493 55.2756H41.6959C44.9577 55.2756 47.9643 53.1982 50.1692 49.4263C52.3741 45.6543 53.3581 41.2445 53.3581 36.3245C53.3581 31.4046 52.2283 26.7397 50.1692 23.2228ZM50.4061 34.8668H44.575C44.4292 31.7326 43.8279 28.7259 42.8074 26.1202H48.3834C49.495 28.5619 50.2421 31.5868 50.4061 34.8668ZM46.6523 23.2046H41.4226C40.8055 22.1537 40.072 21.1757 39.2359 20.2891H41.6959C43.5181 20.2891 45.231 21.3824 46.6523 23.2046ZM24.2026 36.3245C24.2026 27.6326 28.2115 20.2891 32.9493 20.2891C37.687 20.2891 41.6959 27.6326 41.6959 36.3245C41.6959 45.0165 37.687 52.36 32.9493 52.36C28.2115 52.36 24.2026 45.0165 24.2026 36.3245ZM41.6959 52.36H39.2359C40.072 51.4734 40.8055 50.4954 41.4226 49.4445H46.6523C45.231 51.2667 43.5181 52.36 41.6959 52.36ZM48.3834 46.5289H42.8074C43.8279 43.9232 44.4292 40.9165 44.575 37.7823H50.4061C50.2421 41.0623 49.495 44.0872 48.3834 46.5289Z" fill="#22C3F8"/>
</svg>
