<svg xmlns="http://www.w3.org/2000/svg" width="16" height="16" viewBox="0 0 16 16" fill="none">
  <path d="M14.7081 7.29503L8.705 1.29128C8.51764 1.10503 8.26419 1.00049 8 1.00049C7.73582 1.00049 7.48237 1.10503 7.295 1.29128L1.295 7.29503C1.10875 7.48239 1.00421 7.73585 1.00421 8.00003C1.00421 8.26422 1.10875 8.51767 1.295 8.70503L7.29813 14.7088C7.48549 14.895 7.73894 14.9996 8.00313 14.9996C8.26732 14.9996 8.52077 14.895 8.70813 14.7088L14.7113 8.70503C14.8975 8.51767 15.002 8.26422 15.002 8.00003C15.002 7.73585 14.8975 7.48239 14.7113 7.29503H14.7081ZM7.5 5.00003C7.5 4.86742 7.55268 4.74025 7.64645 4.64648C7.74022 4.55271 7.8674 4.50003 8 4.50003C8.13261 4.50003 8.25979 4.55271 8.35356 4.64648C8.44733 4.74025 8.5 4.86742 8.5 5.00003V8.50003C8.5 8.63264 8.44733 8.75982 8.35356 8.85358C8.25979 8.94735 8.13261 9.00003 8 9.00003C7.8674 9.00003 7.74022 8.94735 7.64645 8.85358C7.55268 8.75982 7.5 8.63264 7.5 8.50003V5.00003ZM8 11.5C7.85167 11.5 7.70666 11.456 7.58333 11.3736C7.45999 11.2912 7.36386 11.1741 7.30709 11.037C7.25033 10.9 7.23548 10.7492 7.26442 10.6037C7.29335 10.4582 7.36478 10.3246 7.46967 10.2197C7.57456 10.1148 7.7082 10.0434 7.85369 10.0144C7.99917 9.9855 8.14997 10.0004 8.28702 10.0571C8.42406 10.1139 8.54119 10.21 8.62361 10.3334C8.70602 10.4567 8.75 10.6017 8.75 10.75C8.75 10.9489 8.67099 11.1397 8.53033 11.2804C8.38968 11.421 8.19892 11.5 8 11.5Z" fill="#AF3A48"/>
</svg>