<svg width="48" height="48" viewBox="0 0 48 48" fill="none" xmlns="http://www.w3.org/2000/svg">
<g clip-path="url(#clip0_2602_29681)">
<rect width="48" height="48" fill="black"/>
<path d="M40.2537 -10.6861L40.1875 -10.809L-29.0262 26.4829L-28.96 26.6058L40.2537 -10.6861Z" fill="#00C481"/>
<path d="M45.6636 -7.50974L45.5977 -7.63263L-23.679 29.5571L-23.613 29.68L45.6636 -7.50974Z" fill="#00C481"/>
<path d="M33.0034 -12.7473L32.9375 -12.8702L-30.0008 20.8916L-29.9348 21.0145L33.0034 -12.7473Z" fill="#00C481"/>
<path d="M51.0212 -4.42552L50.9551 -4.54834L-18.2823 32.7043L-18.2162 32.8271L51.0212 -4.42552Z" fill="#00C481"/>
<path d="M56.3981 -1.30565L56.332 -1.42847L-12.9053 35.8241L-12.8392 35.947L56.3981 -1.30565Z" fill="#00C481"/>
<path d="M61.7965 1.84401L61.7305 1.72113L-7.53832 38.9266L-7.47231 39.0494L61.7965 1.84401Z" fill="#00C481"/>
<path d="M67.1443 4.91288L67.0781 4.7901L-2.13562 42.0977L-2.06944 42.2205L67.1443 4.91288Z" fill="#00C481"/>
<path d="M72.5329 8.05403L72.4668 7.93121L3.22946 45.1838L3.29555 45.3066L72.5329 8.05403Z" fill="#00C481"/>
<path d="M77.9118 11.1739L77.8457 11.051L8.60838 48.3036L8.67446 48.4265L77.9118 11.1739Z" fill="#00C481"/>
<path d="M83.2791 14.2738L83.2129 14.151L13.9991 51.4587L14.0653 51.5814L83.2791 14.2738Z" fill="#00C481"/>
<path d="M88.6871 17.4456L88.6211 17.3227L19.3522 54.5282L19.4182 54.6511L88.6871 17.4456Z" fill="#00C481"/>
<path d="M88.6618 23.4313L88.5957 23.3085L31.7367 53.901L31.8028 54.0239L88.6618 23.4313Z" fill="#00C481"/>
<path d="M89.9991 24.6802L20.7539 -12.5567L20.6878 -12.4339L89.933 24.803L89.9991 24.6802Z" fill="#00C481"/>
<path d="M84.6222 27.8001L15.377 -9.43677L15.3109 -9.31393L84.5561 27.923L84.6222 27.8001Z" fill="#00C481"/>
<path d="M89.428 18.3306L31.166 -13L31.1 -12.8772L89.362 18.4535L89.428 18.3306Z" fill="#00C481"/>
<path d="M79.2452 30.9199L10 -6.31696L9.93389 -6.19401L79.1791 31.0429L79.2452 30.9199Z" fill="#00C481"/>
<path d="M73.8643 34.0399L4.61914 -3.19702L4.55308 -3.07418L73.7983 34.1627L73.8643 34.0399Z" fill="#00C481"/>
<path d="M68.4874 37.1596L-0.757812 -0.0772705L-0.823871 0.0455711L68.4213 37.2825L68.4874 37.1596Z" fill="#00C481"/>
<path d="M63.1104 40.2796L-6.13477 3.04266L-6.20082 3.1655L63.0444 40.4024L63.1104 40.2796Z" fill="#00C481"/>
<path d="M57.7296 43.3994L-11.5156 6.16248L-11.5817 6.28531L57.6635 43.5222L57.7296 43.3994Z" fill="#00C481"/>
<path d="M52.3526 46.5191L-16.8926 9.28223L-16.9586 9.40506L52.2866 46.642L52.3526 46.5191Z" fill="#00C481"/>
<path d="M46.9757 49.6389L-22.2695 12.402L-22.3356 12.5249L46.9096 49.7618L46.9757 49.6389Z" fill="#00C481"/>
<path d="M41.5947 52.7588L-27.6504 15.522L-27.7164 15.6448L41.5286 52.8816L41.5947 52.7588Z" fill="#00C481"/>
<path d="M32.5005 53.88L-29.3105 20.6408L-29.3766 20.7636L32.4345 54.0028L32.5005 53.88Z" fill="#00C481"/>
<path d="M21.0211 53.719L-28.5879 27.0415L-28.6539 27.1643L20.9551 53.8418L21.0211 53.719Z" fill="#00C481"/>
<path d="M34.4909 12.572L33.6099 16.5689L30.2793 14.8252V10.6799L42.5613 4.10901L45.8913 5.85278L38.3694 10.4972L37.8212 26.6709L34.4909 24.9272V12.572Z" fill="#FF7AB4"/>
<path d="M37.8209 26.7799C37.8037 26.7799 37.7863 26.7757 37.7705 26.7674L34.4399 25.0236C34.4043 25.0048 34.3815 24.9677 34.3815 24.9271V13.5725L33.7158 16.5926C33.7084 16.6258 33.6861 16.6536 33.6554 16.6678C33.6249 16.6824 33.589 16.6813 33.5587 16.6655L30.2285 14.9218C30.1927 14.9028 30.1699 14.8659 30.1699 14.8253V10.6798C30.1699 10.6397 30.1919 10.6027 30.2275 10.5838L42.5095 4.0129C42.5414 3.99584 42.5792 3.99585 42.6115 4.01252L45.9417 5.75629C45.9766 5.77448 45.9988 5.80973 46.0001 5.84895C46.0014 5.88818 45.9817 5.92494 45.9487 5.94541L38.4758 10.5591L37.9297 26.6745C37.9284 26.712 37.9083 26.7461 37.8757 26.7651C37.8588 26.7747 37.8399 26.7799 37.8209 26.7799ZM34.5996 24.8612L37.718 26.4939L38.26 10.4934C38.2613 10.457 38.2803 10.4236 38.3114 10.4045L45.6709 5.86051L42.5614 4.23234L30.3879 10.7452V14.7594L33.5339 16.4065L34.3842 12.5487C34.3961 12.4943 34.4471 12.4577 34.5024 12.4638C34.5576 12.4699 34.5996 12.5165 34.5996 12.5722V24.8612Z" fill="black"/>
<path d="M30.2793 10.6799L33.6099 12.4238V16.5691L30.3128 14.8253L30.2793 10.6799Z" fill="#111111"/>
<path d="M33.6095 16.678C33.5921 16.678 33.5743 16.6739 33.5584 16.6653L30.2614 14.9216C30.2258 14.9028 30.2035 14.8662 30.2033 14.8261L30.1699 10.6808C30.1695 10.6425 30.1894 10.6069 30.2222 10.5868C30.255 10.5669 30.2956 10.5656 30.3293 10.5832L33.6595 12.3271C33.6955 12.3459 33.7183 12.3831 33.7183 12.4236V16.5689C33.7183 16.6072 33.6984 16.6426 33.6656 16.6623C33.6482 16.6727 33.6288 16.678 33.6095 16.678ZM30.4206 14.7594L33.5006 16.3881V12.4897L30.3896 10.8606L30.4206 14.7594Z" fill="#111111"/>
<path d="M22.7753 18.7434V21.5646L28.8277 18.3265L32.1582 20.0703L22.7751 25.4054L22.2267 35.0128L18.8965 33.269V16.7686L29.4357 11.1151L32.7365 12.8973L22.7753 18.7434Z" fill="#FF7AB4"/>
<path d="M22.2267 35.1219C22.2093 35.1219 22.192 35.1178 22.1761 35.1094L18.8457 33.3657C18.8099 33.3467 18.7871 33.3098 18.7871 33.2692V16.7688C18.7871 16.7286 18.8093 16.6917 18.8445 16.6729L29.3841 11.0194C29.4163 11.0022 29.4551 11.0022 29.4874 11.0194L32.788 12.8016C32.8229 12.8204 32.8445 12.8562 32.8455 12.8956C32.8458 12.9349 32.8256 12.9716 32.7915 12.9915L22.8839 18.8057V21.3829L28.7762 18.2304C28.808 18.2133 28.8463 18.2132 28.8781 18.23L32.2087 19.9738C32.2442 19.9924 32.2662 20.0286 32.2671 20.0683C32.2677 20.1081 32.2468 20.1453 32.212 20.165L22.8807 25.471L22.3357 35.0192C22.3338 35.0562 22.3129 35.0895 22.2805 35.1079C22.2638 35.1172 22.2453 35.1219 22.2267 35.1219ZM19.0052 33.2033L22.1276 34.8379L22.6665 25.3991C22.6684 25.3622 22.6891 25.3288 22.7215 25.3106L31.9309 20.0742L28.8283 18.4498L22.8267 21.6607C22.7929 21.6787 22.752 21.6776 22.7194 21.6581C22.6864 21.6383 22.6663 21.6029 22.6663 21.5646V18.7434C22.6663 18.7047 22.6866 18.6691 22.7204 18.6494L32.5146 12.9013L29.4356 11.239L19.0056 16.834V33.2033H19.0052Z" fill="black"/>
<path d="M18.9142 16.7773L22.2446 18.5211V34.9508L18.8926 33.262L18.9142 16.7773Z" fill="#111111"/>
<path d="M22.244 35.0598C22.2272 35.0598 22.2107 35.056 22.1949 35.048L18.8431 33.3592C18.8063 33.3406 18.7832 33.3029 18.7832 33.2618L18.8048 16.7773C18.8048 16.7392 18.8247 16.7038 18.8571 16.6841C18.8899 16.6642 18.9305 16.6632 18.964 16.6808L22.2944 18.4246C22.3304 18.4434 22.353 18.4805 22.353 18.5211V34.9508C22.353 34.9887 22.3333 35.0238 22.3014 35.0436C22.2838 35.0543 22.2637 35.0598 22.244 35.0598ZM19.0011 33.1949L22.1349 34.774V18.5872L19.022 16.9573L19.0011 33.1949Z" fill="#111111"/>
<path d="M16.1549 18.2361L19.4853 19.9799L16.2926 38.1882L12.9622 36.4445L6.90921 29.448L6.43944 43.4599L3.10938 41.7163V25.2159L6.30224 23.5076L9.63269 25.2513L12.3548 30.8275V20.2692L16.1549 18.2361Z" fill="#FF7AB4"/>
<path d="M6.43941 43.5689C6.42216 43.5689 6.40491 43.5649 6.38881 43.5564L3.05856 41.8128C3.02274 41.7938 3 41.7569 3 41.7163V25.2159C3 25.1757 3.02198 25.1388 3.0578 25.1198L6.25086 23.4115C6.28288 23.3945 6.32059 23.3943 6.35262 23.4111L9.68306 25.1549C9.70353 25.1657 9.72001 25.1828 9.73044 25.2036L12.2458 30.3559V20.2692C12.2458 20.2291 12.2678 20.1921 12.3033 20.1732L16.1037 18.14C16.1353 18.123 16.1736 18.123 16.2056 18.1397L19.5359 19.8834C19.5777 19.9054 19.6009 19.952 19.5927 19.9988L16.4 38.2074C16.394 38.2417 16.372 38.2709 16.3407 38.2864C16.3095 38.302 16.2731 38.3014 16.242 38.2851L12.9117 36.5413C12.8996 36.5349 12.889 36.5263 12.8801 36.5163L7.00885 29.7298L6.54837 43.4637C6.54705 43.5012 6.52676 43.5355 6.49436 43.5545C6.4773 43.564 6.45874 43.5689 6.43941 43.5689ZM3.21793 41.6504L6.33632 43.2831L6.80021 29.4444C6.80211 29.3997 6.83053 29.3603 6.87317 29.3453C6.91524 29.3301 6.96261 29.3428 6.99161 29.3767L13.0311 36.3577L16.2109 38.0228L19.3642 20.0396L16.1554 18.3597L12.4638 20.3346V30.8277C12.4638 30.8785 12.4285 30.9225 12.3794 30.9341C12.33 30.9447 12.2792 30.9214 12.257 30.8755L9.55059 25.3315L6.30296 23.6311L3.21811 25.2813V41.6504H3.21793Z" fill="black"/>
<path d="M3.1839 25.3892L6.51434 27.1329V43.3453L3.16211 41.6563L3.1839 25.3892Z" fill="black"/>
<path d="M6.51375 43.4542C6.49688 43.4542 6.48039 43.4504 6.46448 43.4423L3.11262 41.7535C3.07586 41.7351 3.05273 41.6972 3.05273 41.6563L3.07434 25.3891C3.07434 25.351 3.09424 25.3158 3.12664 25.2961C3.15942 25.2764 3.19979 25.2752 3.23352 25.2927L6.56396 27.0364C6.59996 27.0554 6.62252 27.0923 6.62252 27.1331V43.3455C6.62252 43.3832 6.60281 43.4182 6.57078 43.4381C6.55354 43.4486 6.53346 43.4542 6.51375 43.4542ZM3.27066 41.589L6.40459 43.1681V27.1988L3.2917 25.569L3.27066 41.589Z" fill="black"/>
<path d="M19.4835 19.9798V36.4802L16.2909 38.1884L10.2381 31.1917V41.4269L6.4375 43.46V26.9596L9.63075 25.2513L15.6831 32.5712V22.0131L19.4835 19.9798Z" fill="#FFAAD4"/>
<path d="M26.1054 20.4871V23.3085L32.1578 20.0702V23.9109L26.1054 27.1491V32.9377L22.2266 35.0129V18.5127L32.9806 12.7589V16.8087L26.1054 20.4871Z" fill="#FFAAD4"/>
<path d="M37.8208 14.3157L33.6094 16.569V12.4237L45.891 5.85266V9.99795L41.6993 12.2409V24.5958L37.8208 26.6708V14.3157Z" fill="#FFAAD4"/>
<path d="M9.63037 25.251L6.4375 26.9587V43.4593L7.59951 42.8374V28.0048L10.5849 26.4069L9.63037 25.251ZM15.6835 22.0122V32.2097L16.8455 33.6154V23.0583L19.4832 21.6463V19.9781L15.6835 22.0122Z" fill="#FFDDF3"/>
<path d="M22.2246 18.5115V35.0123L23.3866 34.3901V19.5575L32.9802 14.4283V12.7604L22.2246 18.5115Z" fill="#FFDDF3"/>
<path d="M33.6055 12.4247V16.5691L34.1421 16.2823L34.7675 15.9469V13.4708L45.8888 7.52125V5.85309L33.6055 12.4247Z" fill="#FFDDF3"/>
<path d="M33.6074 14.0927V16.5689L34.1441 16.2822V13.8062L33.6074 14.0927Z" fill="#FFDDF3"/>
<path d="M6.441 43.5689C6.42186 43.5689 6.40234 43.5636 6.38528 43.5534C6.35212 43.5337 6.33203 43.4982 6.33203 43.4599V26.9595C6.33203 26.9193 6.3542 26.8824 6.38983 26.8634L9.58289 25.1551C9.62818 25.1307 9.6854 25.1415 9.71837 25.1816L15.5779 32.2683V22.0128C15.5779 21.9727 15.5999 21.9357 15.6355 21.9168L19.4359 19.8836C19.4696 19.8656 19.5105 19.8666 19.5431 19.8863C19.5761 19.906 19.5962 19.9414 19.5962 19.9797V36.4801C19.5962 36.5203 19.5742 36.5573 19.5384 36.5764L16.3457 38.2845C16.301 38.3082 16.2457 38.2982 16.2119 38.2599L10.3505 31.4842V41.427C10.3505 41.467 10.3284 41.5041 10.2927 41.5231L6.49235 43.556C6.47624 43.5647 6.459 43.5689 6.441 43.5689ZM6.54996 27.0247V43.278L10.1324 41.3616V31.1918C10.1324 31.1463 10.1605 31.1056 10.2033 31.0896C10.2458 31.0739 10.2941 31.086 10.3236 31.1205L16.3198 38.0515L19.3783 36.4153V20.162L15.7956 22.0786V32.5715C15.7956 32.6176 15.767 32.6583 15.7238 32.674C15.6804 32.6894 15.6323 32.6763 15.6029 32.6411L9.60714 25.3897L6.54996 27.0247Z" fill="#111111"/>
<path d="M22.2281 35.122C22.2088 35.122 22.1895 35.1166 22.1722 35.1064C22.1392 35.0867 22.1191 35.0513 22.1191 35.013V18.5128C22.1191 18.4726 22.1413 18.4356 22.1768 18.4167L32.9312 12.6629C32.9649 12.6449 33.0058 12.6459 33.0384 12.6656C33.0712 12.6853 33.0913 12.7207 33.0913 12.759V16.8088C33.0913 16.849 33.0691 16.8859 33.0335 16.9049L26.2157 20.5525V23.1269L32.1078 19.9744C32.1417 19.9564 32.1825 19.9573 32.2153 19.977C32.248 19.9967 32.2681 20.0322 32.2681 20.0704V23.911C32.2681 23.9512 32.246 23.9881 32.2105 24.0071L26.2155 27.2145V32.938C26.2155 32.9782 26.1934 33.0151 26.1577 33.0341L22.2793 35.1093C22.2635 35.1178 22.2459 35.122 22.2281 35.122ZM22.3373 18.5779V34.8313L25.998 32.8728V27.1492C25.998 27.109 26.0202 27.072 26.0556 27.0531L32.0506 23.8458V20.2524L26.1583 23.4049C26.1248 23.4229 26.0836 23.4219 26.0511 23.4022C26.0181 23.3825 25.9982 23.3471 25.9982 23.3088V20.4873C25.9982 20.4472 26.0204 20.4102 26.0558 20.3913L32.8738 16.7436V12.9411L22.3373 18.5779Z" fill="#111111"/>
<path d="M37.8222 26.7799C37.8028 26.7799 37.7833 26.7746 37.7663 26.7644C37.7335 26.7447 37.7132 26.7093 37.7132 26.671V14.4978L33.6621 16.6652C33.6282 16.6832 33.5872 16.6823 33.5546 16.6626C33.5219 16.6429 33.502 16.6074 33.502 16.5692V12.4239C33.502 12.3837 33.5241 12.3468 33.5596 12.3278L45.8414 5.75674C45.8753 5.73874 45.9162 5.73969 45.9488 5.7594C45.9816 5.7791 46.0015 5.81454 46.0015 5.85282V9.99811C46.0015 10.0383 45.9795 10.0752 45.9441 10.0942L41.8098 12.306V24.5958C41.8098 24.6359 41.7876 24.6729 41.752 24.6918L37.8735 26.7669C37.8574 26.7756 37.8398 26.7799 37.8222 26.7799ZM37.8222 14.2069C37.8417 14.2069 37.8612 14.212 37.8782 14.2224C37.911 14.2421 37.9311 14.2776 37.9311 14.3158V26.4891L41.5915 24.5308V12.241C41.5915 12.2008 41.6136 12.1639 41.6493 12.1449L45.7834 9.93311V6.03493L33.7197 12.4894V16.3876L37.7708 14.2201C37.7867 14.211 37.8045 14.2069 37.8222 14.2069Z" fill="#111111"/>
<path d="M15.6858 21.9534L12.3555 20.2098L12.2544 20.4029L15.5847 22.1465L15.6858 21.9534Z" fill="#111111"/>
</g>
<defs>
<clipPath id="clip0_2602_29681">
<rect width="48" height="48" fill="white"/>
</clipPath>
</defs>
</svg>
