<svg width="38" height="38" viewBox="0 0 38 38" fill="none" xmlns="http://www.w3.org/2000/svg">
	<path fill-rule="evenodd" clip-rule="evenodd" d="M0 29.5393L31.2621 29.5393L31.2621 34.7277L-4.53582e-07 34.7276L0 29.5393Z" fill="white"></path>
	<path fill-rule="evenodd" clip-rule="evenodd" d="M0 24.4586L31.2621 24.4586L31.2621 28.6093L3.62866e-07 28.6093L0 24.4586Z" fill="white"></path>
	<path fill-rule="evenodd" clip-rule="evenodd" d="M0 19.8232L31.2621 19.8232L31.2621 23.3253L-3.06168e-07 23.3253L0 19.8232Z" fill="white"></path>
	<path fill-rule="evenodd" clip-rule="evenodd" d="M0 15.002L31.2621 15.002L31.2621 17.7259L-2.3813e-07 17.7258L0 15.002Z" fill="white"></path>
	<path fill-rule="evenodd" clip-rule="evenodd" d="M0 9.85645L31.2621 9.85645L31.2621 11.9318L-1.81433e-07 11.9318L0 9.85645Z" fill="white"></path>
	<path fill-rule="evenodd" clip-rule="evenodd" d="M0 3.73813L31.2621 3.73813L31.2621 4.77581L-9.07164e-08 4.7758L0 3.73813Z" fill="white"></path>
</svg>
