<svg width="1.2em" height="1.2em" fill="currentColor" xmlns="http://www.w3.org/2000/svg" xmlns:xlink="http://www.w3.org/1999/xlink" viewBox="0 0 317 68.87"><defs><clipPath id="clip-path"><rect class="cls-1" width="317" height="72"></rect></clipPath></defs><g id="Layer_1" data-name="Layer 1"><g class="cls-2"><path d="M107,61.94a19.51,19.51,0,0,1-11.31-3.07,13.1,13.1,0,0,1-5.4-9.3l6.91-1.69q.8,4.54,3.46,6.3A11.87,11.87,0,0,0,107,55.86a9.4,9.4,0,0,0,5.4-1.31,4.32,4.32,0,0,0,1.94-3.67,3.45,3.45,0,0,0-1.8-3.22A17.73,17.73,0,0,0,107.3,46l-2.52-.44a31.42,31.42,0,0,1-6.55-1.9,11.42,11.42,0,0,1-4.68-3.45,8.83,8.83,0,0,1-1.73-5.63,9.26,9.26,0,0,1,3.75-7.91c2.49-1.91,5.81-2.86,9.93-2.86a16.26,16.26,0,0,1,9.8,2.78,12.34,12.34,0,0,1,5,7.4l-6.92,2a6.64,6.64,0,0,0-2.73-4.62,9.21,9.21,0,0,0-5.19-1.39,8.39,8.39,0,0,0-4.75,1.17,3.84,3.84,0,0,0-.07,6.37A13.66,13.66,0,0,0,105.29,39l2.52.44a34.05,34.05,0,0,1,6.91,1.91,11.9,11.9,0,0,1,5,3.36,8.45,8.45,0,0,1,1.87,5.79,10,10,0,0,1-4,8.49Q113.64,61.94,107,61.94Z"></path><path d="M125.26,60.92V9.66h7.42V29.94h1.15a11,11,0,0,1,3.53-3.88q2.52-1.83,7.63-1.83a13.76,13.76,0,0,1,7.13,1.83,12.89,12.89,0,0,1,5,5.2,16.73,16.73,0,0,1,1.8,8V60.92h-7.41V39.83q0-4.69-2.31-6.88a8.58,8.58,0,0,0-6.33-2.27,9.57,9.57,0,0,0-7.42,3.07q-2.73,3.07-2.73,8.93V60.92Z"></path><path d="M177.56,61.57a14.12,14.12,0,0,1-7.2-1.83,12.8,12.8,0,0,1-5-5.19,16.92,16.92,0,0,1-1.81-8.06V24.82H171V46q0,4.68,2.3,7a8.91,8.91,0,0,0,6.41,2.2A9.23,9.23,0,0,0,187,52.06c1.88-2.1,2.81-5.11,2.81-9V24.82h7.42v36.1H190V55.5h-1.16a11.42,11.42,0,0,1-3.6,4.17C183.47,60.94,180.92,61.57,177.56,61.57Z"></path><path d="M216.46,60.92a6.92,6.92,0,0,1-5.18-2,7.36,7.36,0,0,1-1.88-5.27V31.19h-9.79V24.82h9.79V12.88h7.42V24.82h15.91V12.88h7.35V24.82h10.65v6.37H240.08V52.35c0,1.46.69,2.2,2.08,2.2h7.35v6.37h-9.72a6.8,6.8,0,0,1-5.19-2,7.4,7.4,0,0,1-1.87-5.27V31.19H216.82V52.35c0,1.46.67,2.2,2,2.2h7.41v6.37Z"></path><path d="M270.69,61.94a18.94,18.94,0,0,1-9.43-2.27,16.61,16.61,0,0,1-6.33-6.52,20.47,20.47,0,0,1-2.24-9.81v-.88a20.5,20.5,0,0,1,2.24-9.81,16.83,16.83,0,0,1,6.26-6.51,17.67,17.67,0,0,1,9.21-2.35,16.64,16.64,0,0,1,8.93,2.35,15.62,15.62,0,0,1,6.05,6.37,20.28,20.28,0,0,1,2.16,9.59V45H260.25a10.07,10.07,0,0,0,10.59,10.4q4.17,0,6.26-1.9a13.27,13.27,0,0,0,3.31-4.4l6.2,3.23a26.33,26.33,0,0,1-3,4.32,14.65,14.65,0,0,1-5,3.8A18,18,0,0,1,270.69,61.94ZM260.33,39.17h19.72a9.32,9.32,0,0,0-2.95-6.37,9.71,9.71,0,0,0-6.77-2.34,10,10,0,0,0-6.84,2.34A10.2,10.2,0,0,0,260.33,39.17Z"></path><path d="M291.43,60.92V24.82h7.27v4.24h1.15a6,6,0,0,1,2.74-3.29,9.3,9.3,0,0,1,4.75-1.1h4.25v6.81h-4.54a8.61,8.61,0,0,0-6,2.05q-2.24,2-2.24,6.15V60.92Z"></path><path class="cls-3" d="M5,55.59H65V65.72H5Z"></path><path class="cls-3" d="M5,45.68H65v8.1H5Z"></path><path class="cls-3" d="M5,36.63H65v6.84H5Z"></path><path class="cls-3" d="M5,27.22H65v5.32H5Z"></path><path class="cls-3" d="M5,17.18H65v4.05H5Z"></path><path class="cls-3" d="M5,5.24H65v2H5Z"></path></g></g><g id="Layer_2" data-name="Layer 2"><text class="cls-4" transform="translate(-4848.23 -3763.61)"><tspan xml:space="preserve"></tspan><tspan class="cls-5" x="130.03" y="0" xml:space="preserve"> .;░░░░░░░░░φ≥≥╓,</tspan><tspan class="cls-5"><tspan x="0" y="50" xml:space="preserve"> '"_____'"⌐;░░░░░Γ░╚φ╖,</tspan><tspan x="0" y="100" xml:space="preserve"> _'__________'\░░░░░░╠╠╠#╓</tspan><tspan x="0" y="150" xml:space="preserve"> ___________.'''^░░░φ▒╚╠╠ε_</tspan><tspan x="0" y="200" xml:space="preserve"> _ _,____________░░░░░░░╚╠╠╗</tspan></tspan><tspan x="0" y="250" xml:space="preserve"> , </tspan><tspan class="cls-5" x="140.03" y="250" xml:space="preserve"> ____________!"░░░░░░▒╚╠╠╦</tspan><tspan x="0" y="300" xml:space="preserve"> _ ≈▒%╓ </tspan><tspan class="cls-5" x="252.83" y="300" xml:space="preserve"> ,_'__'____''_¡'∩░░░░░▒╚░╠ç</tspan><tspan x="0" y="350" xml:space="preserve"> `²δ╠╗▄▓φ╝╠╝▒▒≥</tspan><tspan class="cls-5" x="327.41" y="350">ε,╩#╩░╬└"""_____'__¡'\░░░░░╠▒╠▒▒≥╥,</tspan><tspan x="0" y="400" xml:space="preserve"> └╙╠▒░░░░#▒▒▒╣▓▄</tspan><tspan class="cls-5" x="437.85" y="400">╟▒⌐..¡,_'_______░¡░░░░▒╠╠╠╠▒╚▒░╠╦,</tspan><tspan x="0" y="450" xml:space="preserve"> ^▄▓╗▄▓█╩▒▄▒░.╙╩╬╩╬╬</tspan><tspan class="cls-5" x="491.98" y="450">╠▒░"5╝╬∩_~..__'!''^░░φ╚╬╠╩╚╠░!╙╚╠▒╖</tspan><tspan x="0" y="500" xml:space="preserve"> ,▄▒╣╣▓╬▓╬╣╣╣▓▓▒,'"╩╠╫░;░</tspan><tspan class="cls-5" x="547.22" y="500">░░╩╩≥░╓▄░░;_!'_'░░░╚▒╠╚░░¡░░░░╚╠╠╗</tspan><tspan x="0" y="550" xml:space="preserve"> __╠╣╬╣╬╬╬╬╬╬╩╚╠░_'7╚╠φ▒___</tspan><tspan class="cls-5" x="623.97" y="550">__""░│▓▒░,''._!░░░░░░░░░░░░░Σ╠╠╠╣╦_</tspan><tspan x="0" y="600" xml:space="preserve"> ░└╚╚╫▒░φ╠╠▒▒╠╬░≥,`-┘└╙░___.░</tspan><tspan class="cls-5" x="671.77" y="600">▒░░░╬▒▄░_';_!│░░░∩░░Γ░░░░░╚╬╩╠╠▓▄</tspan><tspan x="0" y="650" xml:space="preserve"> _.__^╙╙▓╙╣▀╫▓▓▓█▄▒░≤╓≤φ▒φ▒⌐φ╜└╣╝╙╣╠╝╬#╦≤;\░""'.,,;φ░░░╚╚╚╠╬╠╬╬╬▄_</tspan><tspan x="0" y="700" xml:space="preserve"> ,_'^╠╣▓φ▄▄╟███▓▓▒░░;_.░░δ.,╟▒░▒╜__@╬╬╩▒∩┌!"¡░░∩φΓ░▒φ▒░░╚▒╬╠╬╬╬▌</tspan><tspan x="0" y="750" xml:space="preserve"> '.ª╝╬╬▓█████╬╬╬╬╬▒╚φ░░░";;φ▒▒▄▌_.▐░╠∩Γ"≥≥░░░░░░φ░▒φ░░░░▒╠╠╬╬╬╬</tspan><tspan x="0" y="800" xml:space="preserve"> `░░╚╚╬▓╬╬▓▓╣╬╬╠╠╬╬▒░╙φ░░;"╙╚╠╠_'╙╬▒│".╧φ░░φ░≥░░Γ░░░φ▒╠╠▒▒╠╬╬╣╣╓</tspan><tspan x="0" y="850" xml:space="preserve"> "≥░╚╙│╚╫╩╬▓╠▓▓▓▓╬▓▄░░╚φ░░░░Ü__`φ╡░░^,φφφ╙╚░▒▒░░▒░░░╠╠╬╠╠╬╬╬╣╬▒_</tspan><tspan x="0" y="900" xml:space="preserve"> _"░;░░░φ╣╣▓▓▀▓╬▓▓▒╙▒░░░╙░░░,"5╚▒░.░░│▓╬░░╚▓▓▒╠▒φ▒░╚╠╠╠╟╬╬╣╬╬╣╣µ</tspan><tspan x="0" y="950" xml:space="preserve"> ║▒╣▓╫╬╣▓▓▓▓╣╬╚¼▄╣▓▄░≥,╙φ░░░,╙░▒░╠╬▀┘_└║╠▀╬▓▒▒▒╚▒╚╬╬╬╣╣╬╬╬╬╣╬╬▌</tspan><tspan x="0" y="1000" xml:space="preserve"> ╙`╚╚╠▀╬╝▓▓▓▓░▓▒╣▓▓█▓▄░░└╙▒╚╠░"_'│µ'░"▓▓▒Σ╟╬▒╙░╬╠╟╬╬╬╣╬╬╬╣╣╬╬╬▄</tspan><tspan x="0" y="1050" xml:space="preserve"> └░░╠╩╬▀╣▌╬▓▓▓██▓▓▓▒░≥_"╚φ░φ▄▓▓▓░"╙╝▒░φ╫╬╬▒╬╬╠╬╬╠╣╣╬╬╬╬╬╬╣╬µ</tspan><tspan x="0" y="1100" xml:space="preserve"> ²░░░░╚╣▓╣▓▓▓▓▀╙▓╣,╫▒░»_╙▒▒╬╬▒;░φ▒▒▓▓▓╬▓╬╩╙▓▓╩╠╠╬╬╬╬╬╬╬╬╬▌</tspan><tspan x="0" y="1150" xml:space="preserve"> "░φ⌐⌠╠╠▓╣▓▒░φ▓▓╝▓▓█▓▒░▒╙╚╬▒╠╬╬╬╬╣╩╚╬▓▓▒░╙Σ╗ ╙╠╠╠╬╠╬╬╬╬╠</tspan><tspan x="0" y="1200" xml:space="preserve"> _`φ░│░;φ╣▒╣▓╬▓╣▓█████▄▒░φ╙╙▒░╚╠▒░φ▒╠╬╬╬╣╬` _╙╠╠╠╠╠╠╩</tspan><tspan x="0" y="1250" xml:space="preserve"> \░░░░╙╚▒░╠▓█▓█████▓╣▒▒φ░░╚║▒▒▒▒╠╬╬╬╣╬▒ ```</tspan><tspan x="0" y="1300" xml:space="preserve"> "░░░░╙Å█▓████▓▒▓▓▓╬▓▓▓▒▒░╠╢╢╫╬╣╬▓▓╣╬╬╦,</tspan><tspan x="0" y="1350" xml:space="preserve"> "░░░░╩▓╩╙▀▓▓╬██▌╟▓▓▓▓▓▓▒╠╣▓█████▓╬╣╬╬▒</tspan><tspan x="0" y="1400" xml:space="preserve"> "░░░≡░╓╟▓╬██Å╣▓▓▓▓▓▓▓█████████▓╬▓╬▓╠µ</tspan><tspan x="0" y="1450" xml:space="preserve"> "φ░░╠▀╬▓╣██▓╣▓▓▓▓▓██████▓███▓█████▓╦</tspan><tspan x="0" y="1500" xml:space="preserve"> ²░φ░▒╚╠╫╬╣╬╣▓██╩╬▓█████▓▓▓▓▓╬╬╬╬╬▌</tspan><tspan x="0" y="1550" xml:space="preserve"> _"φ▒▒╫▓▓▓╣▓▓▓▓▓╬╬▓▓▓▓▒╠╠╩╠╠╬╬╠╣╣▌</tspan><tspan x="0" y="1600" xml:space="preserve"> _╚▓▓╬╬▓▓█▓█▓▒▓▓█╬╣╬░φ▒φ╫╬▒╩╠╠⌐</tspan><tspan x="0" y="1650" xml:space="preserve"> _ │╟▓╬╬╬╬╬╣╬╣▓█╬╬╬▒╠╚░░░░╠╬╜_</tspan><tspan x="0" y="1700" xml:space="preserve"> `╙╣╩╙ ╙╣╬╬╬▒▒░╠╣╠╠▒▒▒╬╠╣╣╩</tspan><tspan x="0" y="1750" xml:space="preserve"> _ _ ╙╠╬╬╬╬╬╬╬╬╬╬╝╨╙</tspan></text></g></svg>