<svg width="24" height="22" viewBox="0 0 24 22" fill="none" xmlns="http://www.w3.org/2000/svg">
<rect width="24" height="22" rx="4" fill="#36342F" />
<path d="M7.40603 11.4047L14.3439 5.39501C14.4213 5.31766 14.6455 5.32534 14.7152 5.39501C14.8682 5.54814 14.7616 5.78173 14.7152 5.85908L12.5572 10.0821H16.0842C16.4322 10.0821 16.6411 10.1053 16.6643 10.3374C16.6828 10.523 16.5947 10.6158 16.5482 10.639C14.3594 12.534 9.93985 16.361 9.77279 16.5095C9.56395 16.6952 9.33192 16.7184 9.19269 16.6256C9.08132 16.5513 9.14629 16.3162 9.19269 16.2079L11.3042 11.9616H7.8469C7.17863 11.9616 7.27454 11.5904 7.40603 11.4047Z" fill="#FABD2E"/>
</svg>
