<svg width="111" height="129" viewBox="0 0 111 129" fill="none" xmlns="http://www.w3.org/2000/svg">
<path d="M69.6941 18.2742L65.0938 17.6036L67.3088 2.10848C67.4925 0.825274 68.6708 -0.0656263 69.9409 0.119897C71.211 0.305421 72.0929 1.49586 71.9092 2.77907L69.6941 18.2742Z" fill="#F8F4FC"/>
<path d="M69.6942 18.3709C69.6942 18.3709 69.6846 18.3709 69.6808 18.3709L65.0823 17.7003C65.0307 17.6926 64.9943 17.6442 65.002 17.5901L67.2171 2.09504C67.3089 1.44957 67.6456 0.877542 68.1639 0.48717C68.6823 0.0967971 69.3174 -0.0674687 69.9582 0.0252932C70.597 0.118055 71.1633 0.458182 71.5497 0.979967C71.936 1.50368 72.0987 2.14722 72.0069 2.79269L69.7918 18.2878C69.7879 18.3129 69.7746 18.3361 69.7535 18.3516C69.7363 18.3631 69.7172 18.3709 69.6961 18.3709H69.6942ZM65.2029 17.5206L69.612 18.1641L71.8137 2.76563C71.8997 2.17041 71.7486 1.57712 71.3928 1.09592C71.037 0.614717 70.5167 0.301646 69.9276 0.216614C69.3384 0.131583 68.7512 0.282321 68.2749 0.641773C67.7986 1.00122 67.4887 1.52688 67.4045 2.1221L65.2048 17.5206H65.2029Z" fill="#501464"/>
<path d="M71.7433 3.56571C70.4464 2.3772 68.9754 2.16462 67.2462 2.91251L67.1716 2.73472C68.9525 1.96557 70.5325 2.19554 71.8734 3.4227L71.7452 3.56571H71.7433Z" fill="#501464"/>
<path d="M71.4411 5.67997C70.1442 4.49146 68.6732 4.27888 66.944 5.02677L66.8694 4.84898C68.6502 4.07983 70.2303 4.3098 71.5712 5.53696L71.443 5.67997H71.4411Z" fill="#501464"/>
<path d="M71.1394 7.79398C69.8424 6.60547 68.3715 6.39289 66.6423 7.14079L66.5676 6.96299C68.3485 6.19384 69.9304 6.42381 71.2694 7.65098L71.1413 7.79398H71.1394Z" fill="#501464"/>
<path d="M70.8368 9.9064C69.5399 8.71789 68.0689 8.50531 66.3397 9.2532L66.2651 9.07541C68.046 8.30433 69.6279 8.53623 70.9669 9.76339L70.8387 9.9064H70.8368Z" fill="#501464"/>
<path d="M72.9698 19.092C73.3233 16.6201 71.1068 14.251 68.0192 13.8004C64.9316 13.3498 62.1421 14.9883 61.7886 17.4601C61.4352 19.932 63.6517 22.3011 66.7393 22.7517C69.8269 23.2023 72.6164 21.5638 72.9698 19.092Z" fill="#F8F4FC"/>
<path d="M67.7223 22.9162C67.3857 22.9162 67.0414 22.8911 66.6952 22.8408C65.1802 22.6205 63.824 21.9383 62.8733 20.9238C61.9169 19.9034 61.4884 18.6646 61.6625 17.4394C61.8384 16.2142 62.5959 15.1493 63.7991 14.444C64.9946 13.7424 66.4866 13.4758 68.0016 13.698C71.1367 14.156 73.3939 16.5775 73.0343 19.0994C72.7129 21.3412 70.429 22.9162 67.7242 22.9162H67.7223ZM66.9629 13.8159C65.8497 13.8159 64.7861 14.0884 63.8947 14.6121C62.7432 15.2885 62.0182 16.3031 61.8518 17.4684C61.6854 18.6337 62.0967 19.8145 63.011 20.7923C63.9311 21.776 65.249 22.435 66.72 22.6514C69.7519 23.094 72.4968 21.4881 72.8411 19.0724C73.1854 16.6567 71.0009 14.3319 67.971 13.8912C67.6324 13.841 67.2939 13.8178 66.9591 13.8178L66.9629 13.8159Z" fill="#501464"/>
<path d="M68.6313 20.2683C68.5453 20.2683 68.4592 20.2296 68.4018 20.1543L65.8348 16.7356C65.7392 16.6081 65.764 16.4264 65.8903 16.3298C66.0165 16.2332 66.1963 16.2583 66.2919 16.3858L68.859 19.8045C68.9546 19.932 68.9298 20.1137 68.8035 20.2103C68.7519 20.2509 68.6906 20.2702 68.6294 20.2702L68.6313 20.2683Z" fill="#501464"/>
<path d="M65.6282 19.816C65.5402 19.816 65.4522 19.7735 65.3948 19.6962C65.3011 19.5667 65.3317 19.385 65.4599 19.2923L68.9011 16.778C69.0293 16.6833 69.209 16.7123 69.3009 16.8437C69.3946 16.9732 69.364 17.1549 69.2358 17.2476L65.7946 19.7619C65.743 19.7986 65.6856 19.816 65.6263 19.816H65.6282Z" fill="#501464"/>
<path d="M70.5351 12.0204C69.2381 10.8319 67.7672 10.6193 66.038 11.3672L65.9634 11.1894C67.7442 10.4183 69.3262 10.6502 70.6652 11.8774L70.537 12.0204H70.5351Z" fill="#501464"/>
<path d="M97.7094 96.1052L93.505 98.2001L91.573 101.816L93.0459 104.831L97.0591 105.482L101.265 103.387L103.197 99.7732L101.724 96.7565L97.7094 96.1052Z" fill="#F8F4FC"/>
<path d="M97.0587 105.578C97.0587 105.578 97.0491 105.578 97.0434 105.578L93.0283 104.927C92.9977 104.921 92.971 104.902 92.9576 104.875L91.4847 101.858C91.4713 101.829 91.4713 101.796 91.4847 101.769L93.4166 98.1556C93.4262 98.1382 93.4415 98.1246 93.4587 98.115L97.6631 96.0201C97.6804 96.0104 97.7014 96.0085 97.7205 96.0104L101.736 96.6617C101.766 96.6675 101.793 96.6868 101.806 96.7139L103.279 99.7306C103.293 99.7596 103.293 99.7924 103.279 99.8195L101.347 103.433C101.338 103.451 101.322 103.464 101.305 103.474L97.1008 105.569C97.0874 105.575 97.074 105.578 97.0587 105.578ZM93.1087 104.744L97.0453 105.381L101.196 103.313L103.09 99.7692L101.661 96.8414L97.7244 96.2037L93.5735 98.2715L91.6798 101.816L93.1087 104.744Z" fill="#501464"/>
<g style="mix-blend-mode:multiply">
<path d="M97.7087 96.1052L93.5043 98.2001L91.5723 101.816L93.0452 104.831L97.0583 105.482L101.265 103.387L103.197 99.7732L101.724 96.7565L97.7087 96.1052Z" fill="#DCC8F0"/>
</g>
<path d="M96.3408 93.303L92.1363 95.3979L90.2043 99.0136L91.6772 102.03L95.6904 102.682L99.8967 100.585L101.829 96.9709L100.356 93.9542L96.3408 93.303Z" fill="#F8F4FC"/>
<path d="M95.691 102.778C95.691 102.778 95.6815 102.778 95.6757 102.778L91.6607 102.127C91.63 102.121 91.6032 102.102 91.5899 102.075L90.117 99.0583C90.1036 99.0293 90.1036 98.9964 90.117 98.9694L92.049 95.3555C92.0585 95.3381 92.0738 95.3246 92.091 95.3149L96.2955 93.2201C96.3127 93.2104 96.3337 93.2085 96.3529 93.2104L100.368 93.8617C100.399 93.8675 100.425 93.8868 100.439 93.9138L101.912 96.9305C101.925 96.9595 101.925 96.9924 101.912 97.0194L99.9796 100.633C99.97 100.651 99.9548 100.664 99.9375 100.674L95.7331 102.769C95.7197 102.775 95.7063 102.778 95.691 102.778ZM91.741 101.944L95.6757 102.581L99.8266 100.513L101.72 96.9711L100.291 94.0433L96.3566 93.4056L92.2058 95.4734L90.3121 99.0177L91.741 101.945V101.944Z" fill="#501464"/>
<path d="M96.6972 99.3987C97.856 98.8213 98.4927 97.7333 98.1194 96.9685C97.746 96.2036 96.504 96.0516 95.3453 96.6289C94.1865 97.2063 93.5497 98.2943 93.923 99.0592C94.2964 99.824 95.5384 99.976 96.6972 99.3987Z" fill="#F8F4FC"/>
<path d="M95.2983 99.8217C94.6288 99.8217 94.0683 99.5647 93.8311 99.0796C93.636 98.6796 93.6857 98.1907 93.9707 97.7017C94.2481 97.2263 94.7187 96.807 95.2964 96.519C95.8721 96.2311 96.488 96.1113 97.0313 96.177C97.5879 96.2446 98.003 96.5036 98.1981 96.9036C98.5941 97.7153 97.938 98.8632 96.7329 99.4642C96.249 99.7058 95.7478 99.8217 95.2983 99.8217ZM96.7348 96.3528C96.3006 96.3528 95.83 96.4707 95.3824 96.693C94.8392 96.9635 94.3973 97.3578 94.1372 97.8003C93.8866 98.2313 93.8388 98.6545 94.0052 98.9946C94.3552 99.7116 95.5412 99.843 96.6506 99.2903C97.7601 98.7376 98.3779 97.7056 98.0279 96.9886C97.8614 96.6485 97.4999 96.4282 97.0103 96.3683C96.9204 96.3567 96.8285 96.3528 96.7367 96.3528H96.7348Z" fill="#501464"/>
<path d="M99.9017 100.607L95.6968 102.702L97.0648 105.505L101.27 103.41L99.9017 100.607Z" fill="#F8F4FC"/>
<path d="M97.0584 105.578C97.0239 105.578 96.9895 105.559 96.9723 105.524L95.6046 102.722C95.5931 102.699 95.5912 102.672 95.5988 102.649C95.6065 102.624 95.6237 102.604 95.6466 102.593L99.8511 100.498C99.874 100.486 99.8989 100.484 99.9238 100.492C99.9467 100.5 99.9678 100.517 99.9793 100.54L101.347 103.342C101.37 103.391 101.351 103.449 101.303 103.472L97.0985 105.567C97.0851 105.575 97.0698 105.576 97.0564 105.576L97.0584 105.578ZM95.8188 102.724L97.1023 105.352L101.135 103.342L99.8511 100.714L95.8188 102.724Z" fill="#501464"/>
<path d="M94.4012 99.5778L94.2175 99.5236C94.4203 98.8202 95.0439 98.1496 95.8874 97.7283C96.731 97.307 97.6377 97.2162 98.3148 97.481L98.246 97.6607C97.6301 97.4172 96.7578 97.5099 95.9735 97.9003C95.1892 98.2907 94.5867 98.9342 94.4031 99.5758L94.4012 99.5778Z" fill="#501464"/>
<path d="M93.9827 99.0174L93.7991 98.9633C94.0133 98.2193 94.6732 97.51 95.5646 97.0655C96.4579 96.621 97.4162 96.5225 98.1297 96.8046L98.0609 96.9844C97.4067 96.7273 96.4828 96.824 95.6488 97.2375C94.8167 97.653 94.1778 98.3333 93.9827 99.0155V99.0174Z" fill="#501464"/>
<path d="M95.3365 99.7496L95.1528 99.6955C95.2886 99.2259 95.7037 98.7795 96.2642 98.4993C96.8246 98.221 97.4272 98.1592 97.8786 98.337L97.8098 98.5167C97.4138 98.3602 96.8534 98.4201 96.3484 98.6732C95.8434 98.9245 95.4551 99.338 95.3365 99.7496Z" fill="#501464"/>
<g style="mix-blend-mode:multiply">
<path d="M96.6972 99.3987C97.856 98.8213 98.4927 97.7333 98.1194 96.9685C97.746 96.2036 96.504 96.0516 95.3453 96.6289C94.1865 97.2063 93.5497 98.2943 93.923 99.0592C94.2964 99.824 95.5384 99.976 96.6972 99.3987Z" fill="#DCC8F0"/>
</g>
<path d="M110.405 13.9206L107.937 12.2451L104.815 14.2511L104.161 17.9306L104.167 17.9345L82.0601 51.2032L84.5162 52.869L106.623 19.6004L106.629 19.6042L109.75 17.5982L110.405 13.9206Z" fill="#F8F4FC"/>
<path d="M84.5159 52.9653C84.4968 52.9653 84.4795 52.9595 84.4623 52.9499L82.0063 51.284C81.9852 51.2705 81.9699 51.2473 81.966 51.2222C81.9603 51.1971 81.9661 51.17 81.9814 51.1488L104.067 17.911L104.721 14.2334C104.725 14.2064 104.742 14.1832 104.763 14.1696L107.885 12.1637C107.918 12.1424 107.958 12.1443 107.99 12.1637L110.458 13.8372C110.49 13.8585 110.506 13.8972 110.498 13.9339L109.844 17.6134C109.84 17.6405 109.823 17.6637 109.802 17.6772L106.68 19.6812L84.5943 52.919C84.5752 52.946 84.5465 52.9615 84.514 52.9615L84.5159 52.9653ZM82.1918 51.1777L84.4891 52.7354L106.542 19.5479C106.556 19.5266 106.579 19.5112 106.603 19.5073L109.664 17.5419L110.299 13.9667L107.935 12.3627L104.901 14.3107L104.258 17.9226C104.26 17.9458 104.258 17.969 104.245 17.9883L82.1918 51.1758V51.1777Z" fill="#501464"/>
<path d="M77.4153 46.752L83.8979 51.2374L67.6923 75.6279L62.8394 71.3937C62.191 70.8275 62.0609 69.8593 62.5392 69.1404L77.4153 46.752Z" fill="#FFE66D"/>
<path d="M67.7115 75.7729L62.7764 71.4672C62.0916 70.8701 61.9557 69.8458 62.4588 69.0863L77.3886 46.6167L84.03 51.2123L67.7096 75.7729H67.7115ZM77.4402 46.8873L62.6176 69.1945C62.1662 69.8729 62.2886 70.7869 62.9007 71.3203L67.6732 75.483L83.766 51.2625L77.4402 46.8853V46.8873Z" fill="#501464"/>
<path d="M89.8118 55.1586L83.9011 51.2336L67.6936 75.6261L72.7435 78.1674C73.5067 78.552 74.4345 78.3046 74.9088 77.5877L89.8137 55.1567L89.8118 55.1586Z" fill="#FFE66D"/>
<path d="M73.4935 78.4458C73.2238 78.4458 72.9521 78.3839 72.6977 78.2564L67.5503 75.6668L83.8726 51.1023L89.944 55.1316L89.8904 55.2128L74.9855 77.6438C74.6431 78.1578 74.075 78.4439 73.4935 78.4439V78.4458ZM67.8315 75.5914L72.7838 78.0844C73.503 78.4458 74.3811 78.21 74.8268 77.5375L89.678 55.1877L83.9261 51.369L67.8315 75.5914Z" fill="#501464"/>
<path d="M77.4148 46.752L83.8974 51.2374L89.0831 43.4319L87.593 42.6763C85.4985 45.7683 81.8296 46.7578 77.4148 46.752Z" fill="#FFE66D"/>
<path d="M83.9247 51.3728L77.1055 46.6555H77.4154C77.4268 46.6555 77.4383 46.6555 77.4498 46.6555C82.4519 46.6555 85.6501 45.3742 87.5152 42.6223L87.563 42.5527L89.2253 43.3953L83.9247 51.3728ZM77.7233 46.8468L83.8731 51.1023L88.946 43.4688L87.6261 42.8001C85.7515 45.5114 82.5972 46.8005 77.7233 46.8468Z" fill="#501464"/>
<path d="M89.8122 55.1588L83.8997 51.2376L89.0854 43.4321L90.2044 44.4467C88.1634 47.5736 88.4388 51.2396 89.8122 55.1588Z" fill="#FFE66D"/>
<path d="M89.9957 55.3983L83.7637 51.2666L89.0661 43.2871L90.3285 44.4312L90.2826 44.5007C88.4597 47.2913 88.3392 50.6694 89.9 55.1278L89.9957 55.3983ZM84.0315 51.2105L89.6284 54.9229C88.1555 50.5708 88.3009 47.2391 90.0799 44.464L89.1024 43.5789L84.0315 51.2105Z" fill="#501464"/>
<g style="mix-blend-mode:multiply">
<path d="M73.2237 74.3043C72.4413 73.8946 72.185 72.8878 72.6766 72.1496L83.1877 56.3317C83.6353 55.6592 84.5305 55.4698 85.2077 55.9066C85.9059 56.3569 86.101 57.2999 85.6381 57.9937L75.127 73.8115C74.7081 74.4416 73.8894 74.6541 73.2237 74.3043Z" fill="#DCC8F0"/>
</g>
<g style="mix-blend-mode:multiply">
<path d="M66.8954 70.0121C66.113 69.6024 65.8567 68.5956 66.3483 67.8573L76.8593 52.0395C77.3069 51.367 78.2022 51.1776 78.8793 51.6143C79.5775 52.0646 79.7726 53.0077 79.3097 53.7015L68.7986 69.5193C68.3797 70.1493 67.561 70.3619 66.8954 70.0121Z" fill="#DCC8F0"/>
</g>
<path d="M4.56075 40.3187C7.96944 38.3958 14.2569 31.7981 14.2569 31.7981C21.1585 40.05 27.2088 48.0855 26.392 54.3701L20.6459 57.7618C20.6459 57.7618 18.513 48.6518 12.2619 45.8071C12.2619 45.8071 9.53034 44.2823 7.73609 45.5655L4.55884 40.3206L4.56075 40.3187Z" fill="#F8F4FC"/>
<path d="M20.6455 57.8564C20.6321 57.8564 20.6206 57.8544 20.6072 57.8486C20.5785 57.837 20.5594 57.8119 20.5518 57.7829C20.5307 57.6921 18.3577 48.6865 12.2213 45.8939C12.1869 45.8746 9.51462 44.4098 7.79115 45.6427C7.77011 45.6582 7.74335 45.664 7.71657 45.6582C7.68979 45.6524 7.66874 45.6369 7.65343 45.6137L4.47623 40.3688C4.46284 40.3456 4.459 40.3186 4.46474 40.2934C4.47048 40.2683 4.48769 40.2471 4.51064 40.2335C7.86768 38.3397 14.1227 31.7961 14.1858 31.7304C14.2049 31.711 14.2317 31.6994 14.2585 31.7014C14.2853 31.7014 14.3102 31.7149 14.3293 31.7362C20.942 39.6422 27.327 47.9038 26.4873 54.3836C26.4835 54.4126 26.4662 54.4396 26.4414 54.4551L20.6952 57.8467C20.6799 57.8564 20.6646 57.8602 20.6474 57.8602L20.6455 57.8564ZM9.48978 44.9528C9.86661 44.9528 10.2702 45.005 10.6949 45.1074C11.6035 45.3296 12.2806 45.7026 12.3093 45.7181C18.1244 48.3657 20.4178 56.4978 20.7086 57.609L26.3056 54.3063C27.0956 47.9328 20.7985 39.7659 14.2547 31.9372C13.5431 32.6754 7.89637 38.4981 4.69618 40.3495L7.77014 45.4224C8.24643 45.1093 8.82985 44.9509 9.49361 44.9509L9.48978 44.9528Z" fill="#501464"/>
<g style="mix-blend-mode:multiply">
<path d="M14.1498 46.9338C18.6411 50.2906 20.4144 56.8458 20.6229 57.671L21.9217 57.0062L26.3901 54.3683C26.8033 51.1815 24.1941 45.9521 21.5774 41.7507L14.146 46.9319" fill="#DCC8F0"/>
</g>
<g style="mix-blend-mode:multiply">
<path d="M11.5364 45.4767C11.896 44.1587 11.6856 42.3614 10.8554 40.7052C10.096 39.1882 9.00379 38.1601 7.9479 37.8083C6.7256 38.85 5.52625 39.7718 4.55835 40.3187L7.7356 45.5636C8.95217 44.694 10.601 45.1153 11.5345 45.4767H11.5364Z" fill="#DCC8F0"/>
</g>
<path d="M42.3123 40.8868C42.3123 40.8868 35.7206 36.9753 26.7895 40.6046C21.7473 42.6531 39.2612 27.8054 39.2612 27.8054L50.8722 35.6689L42.3142 40.8868H42.3123Z" fill="#F8F4FC"/>
<path d="M42.3124 40.9833C42.2952 40.9833 42.2799 40.9794 42.2646 40.9697C42.1996 40.9311 35.6079 37.1259 26.826 40.6934C26.2368 40.933 25.9251 40.9562 25.8161 40.7726C25.6975 40.5736 25.3837 40.0441 32.2795 33.7962C35.6614 30.7331 39.1639 27.7608 39.1983 27.7319C39.2308 27.7048 39.2767 27.7009 39.313 27.7261L50.924 35.5896C50.9508 35.6089 50.968 35.6398 50.9661 35.6727C50.9642 35.7055 50.947 35.7364 50.9202 35.7538L42.3622 40.9717C42.3468 40.9813 42.3296 40.9852 42.3124 40.9852V40.9833ZM34.4602 38.9696C35.7915 38.9696 36.9602 39.1087 37.9186 39.2904C40.4034 39.7619 42.014 40.6103 42.3124 40.7765L50.6945 35.6669L39.2691 27.927C38.81 28.3174 35.5562 31.0906 32.4096 33.9411C26.1202 39.6402 25.9002 40.5349 25.9824 40.6741C25.9844 40.6799 26.0647 40.7958 26.7572 40.5156C29.6398 39.3445 32.2738 38.9696 34.464 38.9696H34.4602Z" fill="#501464"/>
<g style="mix-blend-mode:multiply">
<path d="M42.3123 40.887C42.3123 40.887 35.7206 36.9756 26.7895 40.6049C21.7473 42.6534 39.2612 27.8057 39.2612 27.8057L50.8722 35.6692L42.3142 40.887H42.3123Z" fill="#DCC8F0"/>
</g>
<path d="M54.2981 34.2508C54.2981 34.2508 50.5891 28.9517 39.9461 26.5283C29.303 24.1069 14.2566 31.7964 14.2566 31.7964C12.3571 33.7212 14.9223 41.7065 17.5696 43.1926C25.5443 48.2501 26.208 54.4168 26.208 54.4168L32.8762 51.5083C32.8762 51.5083 26.3094 39.7082 35.208 34.3976C42.7254 30.5557 50.8684 35.6692 50.8684 35.6692L54.2943 34.2508" fill="#F8F4FC"/>
<path d="M26.2079 54.5152C26.1907 54.5152 26.1754 54.5114 26.1601 54.5017C26.1333 54.4862 26.1161 54.4592 26.1122 54.4283C26.1046 54.3664 25.3567 48.2461 17.5178 43.2736C16.043 42.4465 14.1149 39.0839 13.6023 35.4043C13.3593 33.6612 13.5678 32.3567 14.1876 31.7287C14.1953 31.7209 14.2029 31.7151 14.2124 31.7113C14.2507 31.6919 18.0401 29.7671 23.0804 28.1631C27.7382 26.6809 34.4465 25.1793 39.9651 26.4354C50.5221 28.8376 54.3362 34.1424 54.3745 34.1946C54.3917 34.2178 54.3956 34.2487 54.3879 34.2777C54.3803 34.3067 54.3592 34.3299 54.3324 34.3395L50.9065 35.758C50.8778 35.7696 50.8453 35.7677 50.8205 35.7503C50.7401 35.7 42.6354 30.7121 35.2537 34.4825C31.6059 36.6605 30.1063 40.1739 30.8006 44.924C31.3209 48.4799 32.9449 51.4309 32.9602 51.4599C32.9736 51.4831 32.9755 51.5121 32.9679 51.5391C32.9602 51.5642 32.9392 51.5855 32.9143 51.5971L26.2462 54.5056C26.2347 54.5114 26.2213 54.5133 26.2079 54.5133V54.5152ZM14.3138 31.8755C13.7457 32.463 13.5602 33.7056 13.7935 35.3773C14.1914 38.2432 15.8613 42.1219 17.6173 43.1074C21.7586 45.7338 23.8991 48.6616 24.9645 50.6559C25.9458 52.4899 26.2213 53.864 26.2863 54.2794L32.7441 51.4637C32.4629 50.9304 31.0856 48.1939 30.6132 44.9607C30.1254 41.6348 30.5194 37.0876 35.1619 34.3163C42.3676 30.6329 50.2313 35.1744 50.8797 35.5628L54.1469 34.21C53.5749 33.4776 49.6115 28.8279 39.9268 26.6248C36.9045 25.9368 31.539 25.6779 23.1416 28.3487C18.2677 29.8985 14.5721 31.748 14.3157 31.8775L14.3138 31.8755Z" fill="#501464"/>
<path d="M4.99884 38.5387L1.80249 40.1717L6.45832 49.4692L9.23577 47.7106C10.6704 46.725 10.8273 43.8783 9.56861 41.366C8.38838 39.0084 6.40287 37.8198 4.99884 38.5407V38.5387Z" fill="#F8F4FC"/>
<path d="M6.45668 49.5659C6.45668 49.5659 6.43948 49.5659 6.43183 49.562C6.40505 49.5543 6.384 49.5369 6.37252 49.5118L1.71856 40.2143C1.69561 40.166 1.71286 40.1081 1.76068 40.0849L4.95704 38.4519C5.46394 38.191 6.06267 38.162 6.68434 38.3688C7.80527 38.7398 8.91468 39.8433 9.65495 41.3217C10.9327 43.8726 10.7682 46.7753 9.29152 47.7899L6.51024 49.5524C6.49494 49.562 6.47772 49.5678 6.45859 49.5678L6.45668 49.5659ZM1.93091 40.2143L6.49497 49.3301L9.18439 47.6276C10.5827 46.6671 10.7185 43.8765 9.48281 41.4087C8.76549 39.9747 7.69622 38.9079 6.62312 38.5524C6.04926 38.363 5.50219 38.3881 5.04119 38.6258L1.93091 40.2143Z" fill="#501464"/>
<path d="M6.91947 43.0068C8.21063 45.5867 7.99637 48.4856 6.45844 49.4692C4.93773 50.4413 2.69587 49.1755 1.43148 46.6516C0.169006 44.1277 0.339266 41.2579 1.83128 40.2298C3.34243 39.1881 5.62638 40.4269 6.91947 43.0068Z" fill="#F8F4FC"/>
<path d="M5.32243 49.8925C5.08715 49.8925 4.84421 49.8578 4.59745 49.7901C3.35985 49.4442 2.14328 48.2885 1.34754 46.6961C0.0659306 44.1355 0.25913 41.2 1.77984 40.1506C2.32883 39.7718 2.99451 39.6694 3.70609 39.8549C4.96091 40.1815 6.1947 41.343 7.00574 42.9644C8.31795 45.583 8.09413 48.5378 6.5103 49.5524C6.15451 49.7805 5.75282 49.8945 5.32243 49.8945V49.8925ZM3.03276 39.9574C2.61385 39.9574 2.22554 40.0752 1.88697 40.3091C0.442774 41.3043 0.278282 44.1297 1.5178 46.6072C2.29059 48.1513 3.46123 49.2722 4.64911 49.6027C5.29756 49.7824 5.90392 49.7089 6.407 49.3862C7.91049 48.4257 8.10177 45.583 6.83356 43.0494C6.04738 41.4783 4.85953 40.3535 3.65635 40.0405C3.44211 39.9844 3.23361 39.9574 3.03085 39.9574H3.03276Z" fill="#501464"/>
<path d="M58.4605 103.689L32.0327 51.9102L26.208 54.4186L57.4237 116.768L61.9763 125.863L70.7486 119.294C65.6413 114.992 61.4598 109.681 58.4586 103.687L58.4605 103.689Z" fill="#CAFF8A"/>
<path d="M61.9435 126.01L57.3392 116.813L26.0776 54.3704L32.0782 51.7866L32.1184 51.8659L58.5462 103.646C61.559 109.664 65.685 114.903 70.8114 119.223L70.9051 119.302L61.9435 126.012V126.01ZM26.3397 54.4671L62.0123 125.718L70.5972 119.29C65.4937 114.969 61.383 109.736 58.376 103.731L31.9902 52.0321L26.3397 54.4651V54.4671Z" fill="#501464"/>
<path d="M21.5522 57.2591L47.433 109.965C50.2697 115.629 51.9951 121.794 52.5173 128.119L52.5575 128.614L61.9782 125.864L57.4257 116.77L26.21 54.4202L21.5542 57.261L21.5522 57.2591Z" fill="#CAFF8A"/>
<path d="M52.4718 128.738L52.4221 128.125C51.8999 121.783 50.1917 115.686 47.3492 110.006L21.4302 57.2206L26.2486 54.2812L26.2946 54.374L62.1163 125.922L52.4737 128.736L52.4718 128.738ZM21.6769 57.2941L47.5176 109.919C50.3715 115.62 52.0854 121.74 52.6095 128.108L52.6402 128.485L61.8371 125.801L26.1664 54.5518L21.675 57.2921L21.6769 57.2941Z" fill="#501464"/>
<path d="M54.3108 34.2759L45.9172 39.372L42.4951 40.8079L50.8829 35.6944L54.3108 34.2759Z" fill="#501464"/>
<path d="M42.5309 40.8968L42.4448 40.7248L50.8345 35.6113L54.2738 34.1851L54.3599 34.3571L45.9683 39.4551L42.5328 40.8968H42.5309ZM53.1873 34.8441L50.9187 35.7833L43.6365 40.2242L45.8803 39.2831L53.1873 34.8441Z" fill="#501464"/>
<path d="M42.4987 73.9315C40.8671 74.7645 40.5993 75.5916 41.4237 77.24C40.5993 75.5916 39.7806 75.321 38.1489 76.154C39.7806 75.321 40.0484 74.4939 39.2239 72.8455C40.0484 74.4939 40.8671 74.7645 42.4987 73.9315Z" fill="#501464"/>
<path d="M45.7438 80.4169C44.1122 81.2498 43.8444 82.0769 44.6688 83.7254C43.8444 82.0769 43.0257 81.8064 41.394 82.6393C43.0257 81.8064 43.2935 80.9793 42.469 79.3308C43.2935 80.9793 44.1122 81.2498 45.7438 80.4169Z" fill="#501464"/>
<path d="M48.9921 86.9027C47.3605 87.7357 47.0927 88.5628 47.9171 90.2112C47.0927 88.5628 46.274 88.2922 44.6423 89.1252C46.274 88.2922 46.5418 87.4651 45.7173 85.8167C46.5418 87.4651 47.3605 87.7357 48.9921 86.9027Z" fill="#501464"/>
<g style="mix-blend-mode:multiply">
<path d="M26.209 54.4186L27.0028 56.0013L32.7681 53.3441L32.0355 51.9102L26.209 54.4186Z" fill="#DCC8F0"/>
</g>
<g style="mix-blend-mode:multiply">
<path d="M21.5525 57.2593L26.2083 54.4185L27.0022 56.0012L22.3616 58.6623L21.5525 57.2593Z" fill="#DCC8F0"/>
</g>
<path d="M21.8065 57.731L21.5195 57.2286L26.25 54.4708L32.0957 51.8232L32.3309 52.3528L26.4987 54.9945L21.8065 57.731Z" fill="#501464"/>
<g style="mix-blend-mode:multiply">
<path d="M22.6087 31.8718L18.5859 33.2864L18.7753 38.4772L23.0352 42.1742L27.0044 40.6514L26.7672 35.5398L22.6087 31.8718Z" fill="#DCC8F0"/>
</g>
<g style="mix-blend-mode:multiply">
<path d="M21.5525 57.2596L47.4332 109.966C50.27 115.63 51.9954 121.795 52.5176 128.12L52.5577 128.615L61.9785 125.865L57.426 116.77L26.2102 54.4207L21.5544 57.2615L21.5525 57.2596Z" fill="#DCC8F0"/>
</g>
<path d="M105.488 17.6463C105.471 17.6463 105.453 17.6463 105.434 17.6424C105.226 17.6134 105.078 17.4182 105.107 17.2076L105.419 14.9253L107.867 13.2633C108.043 13.1435 108.281 13.1918 108.399 13.3676C108.518 13.5454 108.47 13.7851 108.296 13.9049L106.132 15.3736L105.868 17.3139C105.842 17.5071 105.677 17.6482 105.49 17.6482L105.488 17.6463Z" fill="#F8F4FC"/>
<g style="mix-blend-mode:multiply">
<path d="M71.7831 15.7175C71.7946 15.8354 71.8061 15.9533 71.8061 16.075C71.8061 18.6608 69.0611 20.7557 65.6754 20.7557C64.4206 20.7557 63.2557 20.4677 62.2839 19.973C63.0969 21.3683 64.719 22.4563 66.7064 22.7462C69.7937 23.1965 72.5827 21.5577 72.9365 19.0859C73.1106 17.8646 72.6573 16.6703 71.7812 15.7175H71.7831Z" fill="#DCC8F0"/>
</g>
<g style="mix-blend-mode:multiply">
<path d="M89.8125 55.1589L83.9019 51.2339L67.6943 75.6264L72.7442 78.1677C73.5074 78.5522 74.4352 78.3049 74.9096 77.5879L89.8144 55.1569L89.8125 55.1589Z" fill="#DCC8F0"/>
</g>
<g style="mix-blend-mode:multiply">
<path d="M89.8125 55.1588L83.8999 51.2377L89.0856 43.4321L90.2046 44.4467C88.1636 47.5736 88.4391 51.2396 89.8125 55.1588Z" fill="#DCC8F0"/>
</g>
<path d="M92.2955 43.919L87.5096 40.6743L86.3524 42.4155C85.9679 42.9953 86.0482 43.7702 86.5456 44.2534L87.8482 45.2931L89.1566 46.0236L89.3613 46.1221C90.0002 46.4313 90.7672 46.2207 91.1612 45.6255L92.2955 43.9171V43.919Z" fill="#FFE66D"/>
<path d="M89.9712 46.3579C89.7513 46.3579 89.5275 46.3096 89.319 46.2091L89.1143 46.1106L87.8001 45.3762L86.4841 44.3288C85.9466 43.805 85.8586 42.9798 86.2699 42.3595L87.4807 40.5371L92.4254 43.8901L91.2375 45.6777C90.9487 46.1125 90.4648 46.356 89.9693 46.356L89.9712 46.3579ZM87.5362 40.8057L86.4325 42.4677C86.0729 43.0088 86.1494 43.7297 86.6123 44.1838L87.9073 45.2158L89.2023 45.9386L89.4012 46.0352C89.9923 46.3212 90.7153 46.1221 91.0807 45.5733L92.1634 43.9461L87.5362 40.8077V40.8057Z" fill="#501464"/>
<path d="M42.4987 73.9315C40.8671 74.7645 40.5993 75.5916 41.4237 77.24C40.5993 75.5916 39.7806 75.321 38.1489 76.154C39.7806 75.321 40.0484 74.4939 39.2239 72.8455C40.0484 74.4939 40.8671 74.7645 42.4987 73.9315Z" fill="#501464"/>
<path d="M45.7438 80.4169C44.1122 81.2498 43.8444 82.0769 44.6688 83.7254C43.8444 82.0769 43.0257 81.8064 41.394 82.6393C43.0257 81.8064 43.2935 80.9793 42.469 79.3308C43.2935 80.9793 44.1122 81.2498 45.7438 80.4169Z" fill="#501464"/>
<path d="M48.9921 86.9027C47.3605 87.7357 47.0927 88.5628 47.9171 90.2112C47.0927 88.5628 46.274 88.2922 44.6423 89.1252C46.274 88.2922 46.5418 87.4651 45.7173 85.8167C46.5418 87.4651 47.3605 87.7357 48.9921 86.9027Z" fill="#501464"/>
</svg>
