<svg width="462" height="447" viewBox="0 0 462 447" fill="none" xmlns="http://www.w3.org/2000/svg">
<path d="M290 76.589L270.719 73.7785L280.003 8.83714C280.772 3.45911 285.711 -0.274732 291.034 0.502814C296.357 1.28036 300.053 6.26962 299.283 11.6476L290 76.589Z" fill="#F8F4FC"/>
<path d="M289.999 76.994C289.999 76.994 289.959 76.994 289.943 76.994L270.67 74.1835C270.454 74.1511 270.302 73.9486 270.334 73.7218L279.617 8.78051C280.002 6.07529 281.413 3.67786 283.586 2.04177C285.758 0.405685 288.42 -0.282767 291.106 0.106006C293.783 0.494779 296.156 1.92028 297.776 4.10713C299.395 6.30208 300.077 8.99919 299.692 11.7044L290.408 76.6457C290.392 76.751 290.336 76.8482 290.248 76.913C290.176 76.9616 290.095 76.994 290.007 76.994H289.999ZM271.176 73.4303L289.655 76.1274L298.882 11.591C299.243 9.09639 298.609 6.60986 297.118 4.5931C295.627 2.57634 293.447 1.26423 290.977 0.907851C288.508 0.551475 286.047 1.18323 284.051 2.68973C282.055 4.19622 280.756 6.39927 280.403 8.8939L271.184 73.4303H271.176Z" fill="#501464"/>
<path d="M298.587 14.944C293.151 9.96287 286.986 9.07193 279.739 12.2064L279.427 11.4613C286.89 8.23769 293.512 9.20152 299.132 14.3447L298.595 14.944H298.587Z" fill="#501464"/>
<path d="M297.321 23.8049C291.885 18.8237 285.72 17.9328 278.473 21.0673L278.161 20.3221C285.624 17.0985 292.246 18.0624 297.866 23.2055L297.329 23.8049H297.321Z" fill="#501464"/>
<path d="M296.056 32.666C290.621 27.6848 284.456 26.7939 277.208 29.9283L276.896 29.1832C284.359 25.9596 290.989 26.9234 296.601 32.0666L296.064 32.666H296.056Z" fill="#501464"/>
<path d="M294.788 41.5189C289.352 36.5377 283.187 35.6468 275.94 38.7812L275.627 38.0361C283.091 34.8044 289.721 35.7764 295.333 40.9195L294.796 41.5189H294.788Z" fill="#501464"/>
<path d="M303.728 80.0159C305.209 69.6561 295.92 59.727 282.979 57.8384C270.039 55.9498 258.348 62.8169 256.867 73.1767C255.385 83.5364 264.675 93.4656 277.615 95.3542C290.556 97.2428 302.247 90.3756 303.728 80.0159Z" fill="#F8F4FC"/>
<path d="M281.735 96.0437C280.324 96.0437 278.882 95.9384 277.43 95.7278C271.081 94.8045 265.397 91.9454 261.413 87.6932C257.404 83.4167 255.608 78.2249 256.338 73.0899C257.076 67.9548 260.25 63.492 265.293 60.5357C270.303 57.5956 276.557 56.4779 282.906 57.4094C296.046 59.3289 305.506 69.4775 303.998 80.0473C302.652 89.4427 293.079 96.0437 281.743 96.0437H281.735ZM278.553 57.9034C273.887 57.9034 269.43 59.0455 265.694 61.2404C260.867 64.0752 257.829 68.3274 257.132 73.2114C256.434 78.0953 258.158 83.0441 261.99 87.1424C265.846 91.265 271.37 94.0269 277.535 94.9341C290.241 96.7889 301.746 90.0582 303.189 79.9339C304.632 69.8096 295.476 60.066 282.778 58.2193C281.359 58.0087 279.94 57.9115 278.537 57.9115L278.553 57.9034Z" fill="#501464"/>
<path d="M285.545 84.9464C285.185 84.9464 284.824 84.7844 284.583 84.4685L273.825 70.1406C273.424 69.606 273.528 68.8447 274.057 68.4397C274.586 68.0348 275.34 68.1401 275.741 68.6746L286.499 83.0025C286.9 83.5371 286.796 84.2984 286.267 84.7034C286.05 84.8735 285.794 84.9545 285.537 84.9545L285.545 84.9464Z" fill="#501464"/>
<path d="M272.958 83.0507C272.59 83.0507 272.221 82.8725 271.98 82.5485C271.587 82.0059 271.716 81.2445 272.253 80.8557L286.675 70.3184C287.212 69.9215 287.966 70.043 288.351 70.5937C288.744 71.1364 288.615 71.8978 288.078 72.2865L273.656 82.8239C273.439 82.9778 273.199 83.0507 272.95 83.0507H272.958Z" fill="#501464"/>
<path d="M293.524 50.379C288.088 45.3978 281.923 44.5069 274.676 47.6413L274.363 46.8962C281.827 43.6645 288.457 44.6365 294.069 49.7796L293.532 50.379H293.524Z" fill="#501464"/>
<path d="M407.414 402.786L389.793 411.565L381.696 426.719L387.869 439.355L404.688 442.084L422.318 433.304L430.415 418.158L424.242 405.515L407.414 402.786Z" fill="#F8F4FC"/>
<path d="M404.686 442.489C404.686 442.489 404.646 442.489 404.622 442.489L387.795 439.76C387.666 439.735 387.554 439.654 387.498 439.541L381.325 426.898C381.269 426.776 381.269 426.639 381.325 426.525L389.422 411.379C389.462 411.306 389.526 411.25 389.599 411.209L407.22 402.429C407.292 402.389 407.38 402.381 407.46 402.389L424.288 405.118C424.416 405.143 424.528 405.224 424.584 405.337L430.757 417.98C430.814 418.102 430.814 418.239 430.757 418.353L422.66 433.499C422.62 433.572 422.556 433.628 422.484 433.669L404.863 442.449C404.807 442.473 404.751 442.489 404.686 442.489ZM388.131 438.99L404.63 441.663L422.027 432.997L429.964 418.142L423.975 405.872L407.476 403.199L390.08 411.865L382.143 426.72L388.131 438.99Z" fill="#501464"/>
<g style="mix-blend-mode:multiply">
<path d="M407.41 402.785L389.789 411.565L381.692 426.719L387.865 439.354L404.685 442.084L422.314 433.304L430.411 418.158L424.238 405.515L407.41 402.785Z" fill="#DCC8F0"/>
</g>
<path d="M401.678 391.041L384.056 399.821L375.959 414.975L382.132 427.618L398.952 430.347L416.581 421.559L424.678 406.414L418.505 393.77L401.678 391.041Z" fill="#F8F4FC"/>
<path d="M398.954 430.754C398.954 430.754 398.914 430.754 398.89 430.754L382.063 428.024C381.934 428 381.822 427.919 381.766 427.805L375.593 415.162C375.537 415.041 375.537 414.903 375.593 414.79L383.69 399.644C383.73 399.571 383.794 399.514 383.867 399.474L401.488 390.694C401.56 390.653 401.648 390.645 401.728 390.653L418.556 393.383C418.684 393.407 418.796 393.488 418.852 393.601L425.025 406.245C425.081 406.366 425.081 406.504 425.025 406.617L416.928 421.763C416.888 421.836 416.824 421.893 416.752 421.933L399.131 430.713C399.074 430.737 399.018 430.754 398.954 430.754ZM382.399 427.255L398.89 429.927L416.287 421.261L424.223 406.415L418.235 394.144L401.744 391.471L384.347 400.138L376.411 414.992L382.399 427.263V427.255Z" fill="#501464"/>
<path d="M403.171 416.589C408.028 414.169 410.696 409.609 409.132 406.404C407.567 403.198 402.362 402.561 397.505 404.981C392.649 407.4 389.98 411.96 391.544 415.166C393.109 418.371 398.315 419.008 403.171 416.589Z" fill="#F8F4FC"/>
<path d="M397.308 418.362C394.502 418.362 392.153 417.285 391.159 415.252C390.341 413.575 390.55 411.526 391.744 409.477C392.907 407.484 394.879 405.727 397.3 404.52C399.713 403.313 402.294 402.811 404.571 403.086C406.904 403.37 408.644 404.455 409.462 406.132C411.121 409.533 408.371 414.344 403.321 416.863C401.292 417.876 399.192 418.362 397.308 418.362ZM403.329 403.823C401.509 403.823 399.537 404.317 397.661 405.249C395.384 406.383 393.532 408.035 392.442 409.89C391.392 411.696 391.191 413.47 391.889 414.895C393.356 417.9 398.326 418.451 402.976 416.134C407.626 413.818 410.215 409.493 408.748 406.488C408.051 405.063 406.536 404.139 404.483 403.888C404.106 403.839 403.721 403.823 403.337 403.823H403.329Z" fill="#501464"/>
<path d="M416.601 421.654L398.978 430.434L404.711 442.18L422.334 433.4L416.601 421.654Z" fill="#F8F4FC"/>
<path d="M404.685 442.489C404.54 442.489 404.396 442.408 404.324 442.262L398.592 430.518C398.544 430.42 398.536 430.307 398.568 430.21C398.6 430.104 398.672 430.023 398.768 429.975L416.389 421.195C416.485 421.147 416.59 421.138 416.694 421.171C416.79 421.203 416.878 421.276 416.926 421.373L422.658 433.117C422.755 433.32 422.674 433.563 422.474 433.66L404.853 442.44C404.797 442.472 404.733 442.48 404.677 442.48L404.685 442.489ZM399.49 430.526L404.869 441.541L421.769 433.117L416.389 422.102L399.49 430.526Z" fill="#501464"/>
<path d="M393.548 417.34L392.779 417.113C393.629 414.165 396.242 411.354 399.778 409.589C403.313 407.823 407.113 407.442 409.951 408.552L409.662 409.305C407.081 408.285 403.425 408.673 400.138 410.31C396.851 411.946 394.326 414.643 393.556 417.332L393.548 417.34Z" fill="#501464"/>
<path d="M391.795 414.991L391.025 414.764C391.923 411.646 394.689 408.674 398.425 406.811C402.169 404.948 406.185 404.535 409.175 405.717L408.887 406.471C406.145 405.393 402.273 405.798 398.777 407.532C395.29 409.273 392.612 412.124 391.795 414.983V414.991Z" fill="#501464"/>
<path d="M397.469 418.06L396.699 417.833C397.268 415.865 399.008 413.994 401.357 412.82C403.706 411.653 406.231 411.394 408.123 412.139L407.835 412.893C406.175 412.237 403.826 412.488 401.71 413.549C399.593 414.602 397.966 416.335 397.469 418.06Z" fill="#501464"/>
<g style="mix-blend-mode:multiply">
<path d="M403.171 416.589C408.028 414.169 410.696 409.609 409.132 406.404C407.567 403.198 402.362 402.561 397.505 404.981C392.649 407.4 389.98 411.96 391.544 415.166C393.109 418.371 398.315 419.008 403.171 416.589Z" fill="#DCC8F0"/>
</g>
<path d="M460.62 58.3423L450.278 51.3201L437.195 59.7273L434.453 75.1486L434.477 75.1648L341.826 214.597L352.119 221.578L444.771 82.1465L444.795 82.1627L457.878 73.7555L460.62 58.3423Z" fill="#F8F4FC"/>
<path d="M352.118 221.982C352.038 221.982 351.966 221.958 351.894 221.918L341.6 214.936C341.512 214.879 341.448 214.782 341.432 214.677C341.408 214.571 341.432 214.458 341.496 214.369L434.059 75.0666L436.801 59.6534C436.817 59.54 436.889 59.4428 436.977 59.3861L450.061 50.9789C450.197 50.8898 450.365 50.8979 450.502 50.9789L460.843 57.993C460.98 58.0821 461.044 58.2441 461.012 58.3979L458.27 73.8193C458.254 73.9327 458.182 74.0299 458.094 74.0866L445.01 82.4857L352.447 221.788C352.367 221.901 352.246 221.966 352.11 221.966L352.118 221.982ZM342.378 214.49L352.006 221.019L444.433 81.9268C444.489 81.8377 444.585 81.7729 444.689 81.7567L457.516 73.5196L460.178 58.5356L450.269 51.8131L437.554 59.9773L434.861 75.1152C434.869 75.2124 434.86 75.3096 434.804 75.3906L342.378 214.482V214.49Z" fill="#501464"/>
<path d="M322.36 195.942L349.529 214.741L281.61 316.964L261.271 299.218C258.553 296.845 258.008 292.787 260.012 289.774L322.36 195.942Z" fill="#FFE66D"/>
<path d="M281.69 317.571L261.006 299.526C258.136 297.023 257.567 292.73 259.676 289.547L322.247 195.375L350.082 214.635L281.682 317.571H281.69ZM322.464 196.509L260.341 290.001C258.449 292.844 258.962 296.675 261.527 298.91L281.53 316.356L348.976 214.846L322.464 196.501V196.509Z" fill="#501464"/>
<path d="M374.314 231.175L349.542 214.725L281.615 316.956L302.779 327.607C305.978 329.219 309.866 328.182 311.854 325.177L374.322 231.167L374.314 231.175Z" fill="#FFE66D"/>
<path d="M305.923 328.774C304.793 328.774 303.654 328.514 302.588 327.98L281.014 317.127L349.422 214.175L374.868 231.062L374.644 231.402L312.176 325.412C310.741 327.567 308.36 328.766 305.923 328.766V328.774ZM282.193 316.811L302.949 327.259C305.963 328.774 309.643 327.785 311.511 324.967L373.754 231.297L349.647 215.292L282.193 316.811Z" fill="#501464"/>
<path d="M322.357 195.942L349.526 214.741L371.26 182.027L365.015 178.861C356.236 191.82 340.86 195.967 322.357 195.942Z" fill="#FFE66D"/>
<path d="M349.64 215.309L321.06 195.538H322.359C322.407 195.538 322.455 195.538 322.503 195.538C343.467 195.538 356.871 190.168 364.688 178.634L364.888 178.343L371.855 181.874L349.64 215.309ZM323.649 196.34L349.424 214.175L370.684 182.182L365.153 179.38C357.296 190.743 344.076 196.145 323.649 196.34Z" fill="#501464"/>
<path d="M374.316 231.175L349.536 214.741L371.269 182.028L375.959 186.28C367.405 199.385 368.56 214.75 374.316 231.175Z" fill="#FFE66D"/>
<path d="M375.084 232.179L348.965 214.863L371.188 181.42L376.479 186.215L376.287 186.507C368.647 198.202 368.142 212.36 374.683 231.045L375.084 232.179ZM350.088 214.628L373.545 230.187C367.372 211.947 367.982 197.984 375.437 186.353L371.341 182.643L350.088 214.628Z" fill="#501464"/>
<g style="mix-blend-mode:multiply">
<path d="M304.792 311.416C301.513 309.699 300.439 305.479 302.499 302.385L346.552 236.091C348.428 233.273 352.18 232.479 355.018 234.309C357.944 236.197 358.762 240.149 356.822 243.057L312.769 309.351C311.013 311.991 307.582 312.882 304.792 311.416Z" fill="#DCC8F0"/>
</g>
<g style="mix-blend-mode:multiply">
<path d="M278.269 293.428C274.99 291.711 273.916 287.491 275.976 284.397L320.029 218.103C321.905 215.284 325.657 214.49 328.495 216.321C331.421 218.208 332.238 222.161 330.298 225.068L286.246 291.362C284.49 294.003 281.059 294.894 278.269 293.428Z" fill="#DCC8F0"/>
</g>
<path d="M17.0183 168.979C31.3044 160.921 57.6559 133.269 57.6559 133.269C86.5809 167.854 111.938 201.531 108.515 227.871L84.4325 242.085C84.4325 242.085 75.4935 203.904 49.2943 191.982C49.2943 191.982 37.8463 185.591 30.3264 190.969L17.0103 168.988L17.0183 168.979Z" fill="#F8F4FC"/>
<path d="M84.4314 242.482C84.3753 242.482 84.3271 242.473 84.2709 242.449C84.1507 242.401 84.0707 242.295 84.0386 242.174C83.9504 241.793 74.8432 204.05 49.125 192.346C48.9807 192.265 37.7809 186.126 30.5577 191.293C30.4695 191.358 30.3574 191.382 30.2451 191.358C30.1329 191.334 30.0446 191.269 29.9805 191.172L16.6646 169.19C16.6084 169.092 16.5924 168.979 16.6164 168.874C16.6405 168.769 16.7126 168.679 16.8088 168.623C30.8785 160.685 57.0938 133.261 57.3583 132.985C57.4385 132.904 57.5507 132.856 57.6629 132.864C57.7751 132.864 57.8794 132.92 57.9596 133.009C85.674 166.144 112.434 200.769 108.915 227.927C108.899 228.048 108.827 228.162 108.722 228.227L84.6399 242.441C84.5757 242.482 84.5116 242.498 84.4395 242.498L84.4314 242.482ZM37.6768 188.402C39.2561 188.402 40.9478 188.62 42.7275 189.05C46.5355 189.981 49.3735 191.544 49.4937 191.609C73.8651 202.705 83.4773 236.788 84.6959 241.445L108.153 227.603C111.464 200.891 85.0727 166.663 57.6468 133.852C54.6646 136.946 30.9987 161.349 17.5864 169.109L30.4696 190.37C32.4658 189.058 34.911 188.393 37.6929 188.393L37.6768 188.402Z" fill="#501464"/>
<g style="mix-blend-mode:multiply">
<path d="M57.2071 196.704C76.0308 210.772 83.4626 238.246 84.3364 241.704L89.7799 238.918L108.507 227.862C110.239 214.506 99.3039 192.589 88.3368 174.981L57.1913 196.696" fill="#DCC8F0"/>
</g>
<g style="mix-blend-mode:multiply">
<path d="M46.2547 190.597C47.7618 185.073 46.8799 177.541 43.4006 170.599C40.2179 164.241 35.6403 159.932 31.215 158.458C26.0922 162.824 21.0656 166.687 17.009 168.979L30.3252 190.961C35.4239 187.317 42.3344 189.082 46.2466 190.597H46.2547Z" fill="#DCC8F0"/>
</g>
<path d="M175.239 171.361C175.239 171.361 147.613 154.967 110.182 170.178C89.0491 178.763 162.452 116.535 162.452 116.535L211.115 149.492L175.247 171.361H175.239Z" fill="#F8F4FC"/>
<path d="M175.239 171.765C175.167 171.765 175.103 171.749 175.039 171.708C174.766 171.546 147.14 155.599 110.334 170.55C107.865 171.554 106.559 171.652 106.102 170.882C105.605 170.048 104.29 167.829 133.191 141.643C147.365 128.806 162.044 116.349 162.188 116.227C162.324 116.114 162.516 116.098 162.669 116.203L211.331 149.16C211.444 149.241 211.516 149.37 211.508 149.508C211.5 149.645 211.428 149.775 211.315 149.848L175.448 171.716C175.384 171.757 175.312 171.773 175.239 171.773V171.765ZM142.33 163.325C147.91 163.325 152.808 163.909 156.824 164.67C167.238 166.646 173.989 170.202 175.239 170.898L210.369 149.483L162.484 117.045C160.56 118.681 146.924 130.304 133.736 142.251C107.376 166.136 106.454 169.886 106.799 170.469C106.807 170.493 107.144 170.979 110.046 169.805C122.127 164.897 133.167 163.325 142.346 163.325H142.33Z" fill="#501464"/>
<g style="mix-blend-mode:multiply">
<path d="M175.239 171.361C175.239 171.361 147.613 154.968 110.182 170.179C89.0496 178.764 162.452 116.536 162.452 116.536L211.115 149.493L175.247 171.361H175.239Z" fill="#DCC8F0"/>
</g>
<path d="M225.473 143.548C225.473 143.548 209.928 121.339 165.322 111.182C120.716 101.034 57.655 133.262 57.655 133.262C49.6943 141.329 60.445 174.795 71.5404 181.024C104.963 202.22 107.745 228.066 107.745 228.066L135.692 215.876C135.692 215.876 108.17 166.421 145.464 144.163C176.971 128.062 211.099 149.493 211.099 149.493L225.457 143.548" fill="#F8F4FC"/>
<path d="M107.744 228.478C107.672 228.478 107.608 228.462 107.544 228.422C107.431 228.357 107.359 228.243 107.343 228.114C107.311 227.855 104.177 202.204 71.3232 181.364C65.1422 177.897 57.0612 163.804 54.9127 148.383C53.8945 141.077 54.7684 135.61 57.3659 132.978C57.398 132.945 57.4299 132.921 57.47 132.905C57.6304 132.824 73.5119 124.757 94.6365 118.034C114.158 111.822 142.273 105.529 165.402 110.793C209.647 120.861 225.632 143.094 225.793 143.313C225.865 143.41 225.881 143.539 225.849 143.661C225.817 143.782 225.729 143.88 225.616 143.92L211.258 149.865C211.138 149.914 211.002 149.906 210.898 149.833C210.561 149.622 176.593 128.717 145.656 144.519C130.368 153.648 124.082 168.372 126.993 188.281C129.173 203.184 135.98 215.552 136.044 215.673C136.1 215.77 136.108 215.892 136.076 216.005C136.044 216.11 135.955 216.2 135.851 216.248L107.904 228.438C107.856 228.462 107.8 228.47 107.744 228.47V228.478ZM57.8949 133.593C55.5139 136.056 54.7363 141.263 55.7144 148.269C57.3819 160.281 64.3806 176.537 71.7401 180.667C89.0967 191.674 98.0676 203.945 102.533 212.304C106.646 219.99 107.8 225.749 108.073 227.49L135.138 215.689C133.959 213.454 128.187 201.985 126.207 188.435C124.163 174.495 125.814 155.437 145.271 143.823C175.471 128.385 208.428 147.419 211.146 149.047L224.839 143.377C222.442 140.308 205.831 120.82 165.241 111.587C152.574 108.704 130.087 107.618 94.8929 118.812C74.4658 125.308 58.9772 133.059 57.903 133.601L57.8949 133.593Z" fill="#501464"/>
<path d="M18.856 161.52L5.45984 168.364L24.9729 207.33L36.6134 199.96C42.6261 195.829 43.2835 183.898 38.0083 173.369C33.0619 163.488 24.7405 158.507 18.856 161.528V161.52Z" fill="#F8F4FC"/>
<path d="M24.9655 207.735C24.9655 207.735 24.8934 207.735 24.8614 207.719C24.7491 207.687 24.6609 207.614 24.6128 207.508L5.10761 168.542C5.01141 168.34 5.08373 168.097 5.28415 167.999L18.6804 161.155C20.8048 160.062 23.3142 159.94 25.9196 160.807C30.6176 162.362 35.2672 166.987 38.3697 173.183C43.725 183.874 43.0356 196.04 36.8466 200.292L25.19 207.679C25.1258 207.719 25.0537 207.743 24.9735 207.743L24.9655 207.735ZM5.99757 168.542L25.126 206.747L36.3976 199.611C42.2579 195.586 42.8272 183.89 37.6483 173.547C34.6419 167.538 30.1605 163.067 25.6631 161.576C23.258 160.783 20.9651 160.888 19.0331 161.884L5.99757 168.542Z" fill="#501464"/>
<path d="M26.9053 180.245C32.3167 191.058 31.4186 203.207 24.9731 207.33C18.5996 211.404 9.20379 206.099 3.90462 195.521C-1.38653 184.943 -0.672959 172.915 5.58022 168.606C11.9136 164.241 21.4858 169.433 26.9053 180.245Z" fill="#F8F4FC"/>
<path d="M20.2115 209.104C19.2255 209.104 18.2073 208.958 17.1731 208.675C11.9862 207.225 6.88742 202.382 3.55239 195.708C-1.81893 184.976 -1.00922 172.673 5.36422 168.275C7.66507 166.687 10.455 166.258 13.4373 167.036C18.6964 168.404 23.8673 173.272 27.2664 180.068C32.766 191.042 31.828 203.426 25.19 207.679C23.6989 208.634 22.0153 209.112 20.2115 209.112V209.104ZM10.6153 167.465C8.85963 167.465 7.2322 167.959 5.81321 168.939C-0.23955 173.11 -0.928948 184.952 4.266 195.335C7.50483 201.806 12.4111 206.504 17.3896 207.889C20.1073 208.642 22.6486 208.335 24.7571 206.982C31.0583 202.957 31.86 191.042 26.5448 180.424C23.2499 173.839 18.2715 169.125 13.2288 167.813C12.331 167.578 11.4571 167.465 10.6073 167.465H10.6153Z" fill="#501464"/>
<path d="M242.918 434.569L132.157 217.561L107.745 228.074L238.573 489.386L257.653 527.502L294.419 499.972C273.013 481.943 255.489 459.685 242.91 434.561L242.918 434.569Z" fill="#CAFF8A"/>
<path d="M257.516 528.118L238.219 489.573L107.199 227.871L132.348 217.042L132.516 217.375L243.278 434.391C255.904 459.613 273.197 481.57 294.682 499.673L295.075 500.005L257.516 528.126V528.118ZM108.297 228.276L257.804 526.895L293.784 499.956C272.395 481.846 255.167 459.912 242.564 434.747L131.979 218.071L108.297 228.268V228.276Z" fill="#501464"/>
<path d="M88.2321 239.978L196.701 460.874C208.59 484.613 215.821 510.451 218.01 536.96L218.178 539.034L257.661 527.508L238.581 489.392L107.753 228.08L88.2401 239.986L88.2321 239.978Z" fill="#CAFF8A"/>
<path d="M217.819 539.553L217.611 536.985C215.422 510.403 208.263 484.849 196.35 461.045L87.7207 239.817L107.915 227.498L108.108 227.886L258.24 527.752L217.827 539.545L217.819 539.553ZM88.7549 240.125L197.055 460.681C209.016 484.574 216.2 510.225 218.396 536.913L218.525 538.492L257.07 527.242L107.571 228.631L88.7469 240.116L88.7549 240.125Z" fill="#501464"/>
<path d="M225.526 143.653L190.348 165.011L176.005 171.029L211.159 149.598L225.526 143.653Z" fill="#501464"/>
<path d="M176.155 171.402L175.795 170.681L210.957 149.25L225.371 143.272L225.732 143.993L190.562 165.359L176.163 171.402H176.155ZM220.818 146.034L211.31 149.97L180.789 168.583L190.193 164.639L220.818 146.034Z" fill="#501464"/>
<path d="M176.021 309.854C169.183 313.344 168.06 316.811 171.515 323.72C168.06 316.811 164.629 315.677 157.791 319.168C164.629 315.677 165.751 312.211 162.296 305.302C165.751 312.211 169.183 313.344 176.021 309.854Z" fill="#501464"/>
<path d="M189.621 337.035C182.783 340.526 181.66 343.992 185.116 350.901C181.66 343.992 178.229 342.859 171.391 346.349C178.229 342.859 179.351 339.392 175.896 332.483C179.351 339.392 182.783 340.526 189.621 337.035Z" fill="#501464"/>
<path d="M203.235 364.217C196.397 367.708 195.274 371.175 198.73 378.084C195.274 371.175 191.843 370.041 185.005 373.532C191.843 370.041 192.965 366.574 189.51 359.666C192.965 366.574 196.397 367.708 203.235 364.217Z" fill="#501464"/>
<g style="mix-blend-mode:multiply">
<path d="M107.748 228.073L111.075 234.707L135.238 223.57L132.168 217.56L107.748 228.073Z" fill="#DCC8F0"/>
</g>
<g style="mix-blend-mode:multiply">
<path d="M88.2325 239.979L107.746 228.073L111.073 234.707L91.6237 245.86L88.2325 239.979Z" fill="#DCC8F0"/>
</g>
<path d="M89.2974 241.956L88.0949 239.85L107.921 228.292L132.42 217.196L133.406 219.415L108.963 230.487L89.2974 241.956Z" fill="#501464"/>
<g style="mix-blend-mode:multiply">
<path d="M92.6592 133.577L75.7996 139.506L76.5933 161.261L94.4469 176.756L111.082 170.373L110.088 148.95L92.6592 133.577Z" fill="#DCC8F0"/>
</g>
<g style="mix-blend-mode:multiply">
<path d="M88.2325 239.98L196.701 460.876C208.59 484.615 215.821 510.452 218.01 536.962L218.178 539.035L257.662 527.51L238.582 489.394L107.754 228.082L88.2406 239.988L88.2325 239.98Z" fill="#DCC8F0"/>
</g>
<path d="M440.013 73.957C439.941 73.957 439.869 73.957 439.789 73.9408C438.915 73.8193 438.298 73.0012 438.418 72.1184L439.725 62.553L449.986 55.5874C450.724 55.0853 451.718 55.2877 452.215 56.0248C452.712 56.7699 452.512 57.7743 451.782 58.2764L442.715 64.432L441.609 72.5639C441.497 73.3738 440.807 73.9651 440.021 73.9651L440.013 73.957Z" fill="#F8F4FC"/>
<g style="mix-blend-mode:multiply">
<path d="M298.754 65.874C298.802 66.3681 298.85 66.8622 298.85 67.3724C298.85 78.2095 287.346 86.9893 273.156 86.9893C267.897 86.9893 263.014 85.7824 258.942 83.709C262.349 89.5568 269.147 94.1168 277.477 95.3317C290.416 97.2189 302.105 90.3505 303.588 79.9914C304.317 74.8725 302.417 69.867 298.746 65.874H298.754Z" fill="#DCC8F0"/>
</g>
<g style="mix-blend-mode:multiply">
<path d="M374.317 231.175L349.545 214.725L281.618 316.956L302.782 327.607C305.981 329.219 309.869 328.182 311.857 325.177L374.325 231.167L374.317 231.175Z" fill="#DCC8F0"/>
</g>
<g style="mix-blend-mode:multiply">
<path d="M374.317 231.175L349.537 214.741L371.271 182.028L375.961 186.28C367.407 199.385 368.561 214.75 374.317 231.175Z" fill="#DCC8F0"/>
</g>
<path d="M384.723 184.069L364.665 170.47L359.815 177.768C358.203 180.197 358.54 183.445 360.624 185.47L366.084 189.828L371.567 192.889L372.425 193.302C375.103 194.598 378.318 193.715 379.969 191.221L384.723 184.061V184.069Z" fill="#FFE66D"/>
<path d="M374.982 194.29C374.06 194.29 373.122 194.088 372.248 193.666L371.39 193.253L365.883 190.176L360.367 185.786C358.114 183.591 357.745 180.132 359.469 177.532L364.544 169.895L385.268 183.947L380.289 191.439C379.078 193.261 377.05 194.282 374.974 194.282L374.982 194.29ZM364.776 171.02L360.151 177.986C358.643 180.254 358.964 183.275 360.904 185.178L366.332 189.503L371.759 192.532L372.593 192.937C375.07 194.136 378.1 193.302 379.632 191.002L384.169 184.182L364.776 171.028V171.02Z" fill="#501464"/>
<path d="M176.021 309.854C169.183 313.344 168.06 316.811 171.515 323.72C168.06 316.811 164.629 315.677 157.791 319.168C164.629 315.677 165.751 312.211 162.296 305.302C165.751 312.211 169.183 313.344 176.021 309.854Z" fill="#501464"/>
<path d="M189.621 337.035C182.783 340.526 181.66 343.992 185.116 350.901C181.66 343.992 178.229 342.859 171.391 346.349C178.229 342.859 179.351 339.392 175.896 332.483C179.351 339.392 182.783 340.526 189.621 337.035Z" fill="#501464"/>
<path d="M203.235 364.217C196.397 367.708 195.274 371.175 198.73 378.084C195.274 371.175 191.843 370.041 185.005 373.532C191.843 370.041 192.965 366.574 189.51 359.666C192.965 366.574 196.397 367.708 203.235 364.217Z" fill="#501464"/>
</svg>
