<svg width="252" height="48" viewBox="0 0 252 48" fill="none" xmlns="http://www.w3.org/2000/svg">
<path d="M44.6308 0.0499588V7.14489H9.59803V20.7556H38.3033V27.5609H9.59803V46.9633H0.80127V27.5609H9.59803V20.7556H0.80127V0.0499588H44.6308Z" fill="#EAE9E5"/>
<path d="M49.0356 10.9095H57.6009V46.9633H49.0356V10.9095ZM71.4905 17.7873C68.7126 17.7873 66.3205 18.3423 64.3142 19.4524C62.3594 20.5625 60.7904 21.9139 59.6072 23.5067C58.424 25.0994 57.6009 26.6439 57.1379 28.1401L57.0607 24.0858C57.1122 23.5549 57.2922 22.7586 57.6009 21.6967C57.9096 20.5866 58.3725 19.38 58.9899 18.0769C59.6586 16.7737 60.5331 15.5188 61.6135 14.3122C62.7452 13.0573 64.1084 12.0438 65.7032 11.2715C67.3493 10.4993 69.2785 10.1132 71.4905 10.1132V17.7873Z" fill="#EAE9E5"/>
<path d="M95.0465 47.7596C91.5484 47.7596 88.3332 46.9632 85.401 45.3705C82.5202 43.7778 80.2052 41.5818 78.4562 38.7825C76.7585 35.9349 75.9097 32.677 75.9097 29.0089C75.9097 25.2442 76.7843 21.9622 78.5333 19.1628C80.2824 16.3152 82.6488 14.095 85.6325 12.5023C88.6162 10.9095 91.96 10.1132 95.6639 10.1132C99.7793 10.1132 103.046 10.9578 105.464 12.6471C107.882 14.3363 109.605 16.6048 110.634 19.4524C111.663 22.3 112.177 25.4855 112.177 29.0089C112.177 30.9877 111.868 33.0872 111.251 35.3074C110.634 37.4793 109.656 39.5065 108.319 41.3888C107.033 43.2711 105.284 44.8155 103.072 46.0221C100.911 47.1804 98.236 47.7596 95.0465 47.7596ZM97.6701 41.0992C100.551 41.0992 102.995 40.5924 105.001 39.5789C107.059 38.517 108.602 37.0691 109.631 35.235C110.711 33.401 111.251 31.3256 111.251 29.0089C111.251 26.4508 110.711 24.2789 109.631 22.4931C108.55 20.659 107.007 19.2594 105.001 18.2941C102.995 17.2805 100.551 16.7737 97.6701 16.7737C93.5547 16.7737 90.3652 17.9079 88.1017 20.1764C85.8382 22.4448 84.7065 25.389 84.7065 29.0089C84.7065 31.3738 85.2466 33.4734 86.3269 35.3074C87.4587 37.1415 89.002 38.5653 90.9568 39.5789C92.9117 40.5924 95.1494 41.0992 97.6701 41.0992ZM111.251 10.9095H119.894V46.9633H111.868C111.868 46.9633 111.817 46.5047 111.714 45.5877C111.611 44.6707 111.508 43.5607 111.405 42.2575C111.303 40.9061 111.251 39.6271 111.251 38.4205V10.9095Z" fill="#EAE9E5"/>
<path d="M167.634 32.9907C167.325 36.0797 166.27 38.7342 164.47 40.9544C162.669 43.1746 160.251 44.8637 157.216 46.0221C154.233 47.1804 150.786 47.7596 146.876 47.7596C142.658 47.7596 138.825 47.0356 135.379 45.5877C131.984 44.1398 129.283 42.0162 127.276 39.2169C125.27 36.4175 124.267 33.0148 124.267 29.0089C124.267 25.0029 125.27 21.6002 127.276 18.8008C129.283 16.0015 131.984 13.8537 135.379 12.3575C138.825 10.8613 142.658 10.1132 146.876 10.1132C150.786 10.1132 154.233 10.7165 157.216 11.9231C160.2 13.0815 162.592 14.7466 164.393 16.9185C166.193 19.0904 167.248 21.7209 167.556 24.8098H159.686C158.811 22.2518 157.216 20.2729 154.901 18.8732C152.638 17.4253 149.963 16.7013 146.876 16.7013C144.356 16.7013 142.041 17.184 139.931 18.1493C137.822 19.0663 136.125 20.4418 134.839 22.2759C133.604 24.0617 132.987 26.306 132.987 29.0089C132.987 31.6634 133.604 33.9077 134.839 35.7418C136.125 37.5759 137.822 38.9514 139.931 39.8684C142.041 40.7372 144.356 41.1716 146.876 41.1716C150.272 41.1716 153.049 40.4718 155.21 39.0721C157.422 37.6241 158.94 35.597 159.763 32.9907H167.634Z" fill="#EAE9E5"/>
<path d="M180.602 10.9361H189.862V17.5243H180.602V10.9361ZM171.96 0.0281689H180.602V46.9898H171.96V17.5243H180.602V10.9361H171.96V0.0281689Z" fill="#EAE9E5"/>
<path d="M213.421 47.7596C209.923 47.7596 206.656 46.9632 203.775 45.3705C200.895 43.7778 198.58 41.5818 196.831 38.7825C195.133 35.9349 194.284 32.677 194.284 29.0089C194.284 25.2442 195.159 21.9622 196.908 19.1628C198.657 16.3152 201.023 14.095 204.007 12.5023C206.991 10.9095 210.334 10.1132 214.038 10.1132C218.154 10.1132 221.42 10.9578 223.838 12.6471C226.256 14.3363 227.979 16.6048 229.008 19.4524C230.037 22.3 230.551 25.4855 230.551 29.0089C230.551 30.9877 230.243 33.0872 229.626 35.3074C229.008 37.4793 228.031 39.5065 226.693 41.3888C225.407 43.2711 223.658 44.8155 221.446 46.0221C219.285 47.1804 216.61 47.7596 213.421 47.7596ZM216.045 41.0992C218.925 41.0992 221.369 40.5924 223.375 39.5789C225.433 38.517 226.976 37.0691 228.005 35.235C229.085 33.401 229.626 31.3256 229.626 29.0089C229.626 26.4508 229.085 24.2789 228.005 22.4931C226.925 20.659 225.381 19.2594 223.375 18.2941C221.369 17.2805 218.925 16.7737 216.045 16.7737C211.929 16.7737 208.74 17.9079 206.476 20.1764C204.213 22.4448 203.081 25.389 203.081 29.0089C203.081 31.3738 203.621 33.4734 204.701 35.3074C205.833 37.1415 207.376 38.5653 209.331 39.5789C211.286 40.5924 213.524 41.0992 216.045 41.0992ZM229.626 10.9095H238.268V46.9633H230.243C230.243 46.9633 230.191 46.5047 230.089 45.5877C229.986 44.6707 229.883 43.5607 229.78 42.2575C229.677 40.9061 229.626 39.6271 229.626 38.4205V10.9095Z" fill="#EAE9E5"/>
<path d="M242.633 -3.43985e-05H251.199V46.9618H242.633V-3.43985e-05Z" fill="#EAE9E5"/>
</svg>
